<svg xmlns="http://www.w3.org/2000/svg" xmlns:xlink="http://www.w3.org/1999/xlink" aria-hidden="true" style="position:absolute;width:0;height:0;overflow:hidden">
  <defs>
    <path id="reuse-0" d="M19.417 26.187c.008 0 .017.002.025.005s.015.007.02.013l.116.111c-.09.09-.202.162-.327.211-.147.053-.305.079-.464.076-.149.003-.298-.021-.436-.071-.125-.045-.237-.113-.329-.2-.094-.089-.166-.194-.212-.308-.051-.127-.076-.261-.074-.396-.002-.135.025-.27.08-.397.051-.115.127-.22.225-.308.099-.087.218-.155.349-.201.143-.048.296-.072.449-.071.143-.003.285.019.417.064.115.043.221.104.313.178l-.097.119c-.007.008-.015.016-.025.021-.011.007-.025.01-.039.009-.015-.001-.03-.005-.042-.013l-.052-.032-.073-.04c-.031-.015-.064-.028-.097-.039-.043-.013-.087-.024-.132-.032-.057-.009-.115-.013-.173-.013-.111-.001-.22.017-.323.053-.096.034-.182.084-.253.149-.073.069-.128.15-.164.238-.041.101-.061.207-.06.313-.002.108.018.216.06.318.035.087.09.167.161.236.067.064.149.114.241.147.095.034.197.051.3.05.059.001.119-.003.177-.01.096-.01.188-.039.269-.085.041-.023.079-.049.115-.078.015-.012.035-.02.055-.02zM22.776 25.629c.002.134-.025.267-.078.393-.047.114-.122.218-.219.305s-.214.155-.344.2c-.285.094-.599.094-.884 0-.129-.046-.245-.114-.342-.201-.097-.089-.172-.194-.221-.308-.105-.255-.105-.533 0-.787.05-.115.125-.22.221-.31.097-.084.214-.15.342-.193.284-.096.6-.096.884 0 .129.046.246.114.343.201.096.088.17.191.22.304.054.127.08.261.078.395zm-.306 0c.002-.107-.016-.214-.055-.316-.033-.087-.086-.168-.156-.236-.068-.065-.152-.116-.246-.149-.207-.069-.436-.069-.643 0-.094.033-.178.084-.246.149-.071.068-.125.149-.157.236-.074.206-.074.426 0 .632.033.087.086.168.157.236.068.065.152.115.246.148.207.067.435.067.643 0 .094-.033.177-.083.246-.148.07-.069.123-.149.156-.236.039-.102.058-.209.055-.316zM25.067 25.96l.031.071c.012-.025.022-.048.033-.071.011-.024.024-.047.038-.07l.743-1.174c.015-.02.028-.033.042-.037.02-.005.04-.007.061-.006h.22v1.909h-.26V25.119c-.001-.022-.001-.044 0-.066l-.747 1.19c-.009.018-.025.033-.044.043s-.041.016-.064.016h-.042c-.023 0-.045-.005-.064-.016s-.034-.026-.044-.044l-.769-1.198v1.533h-.252v-1.905h.22c.021-.001.041.001.061.006.018.008.032.021.041.037l.759 1.175c.015.022.028.045.038.068zM27.864 25.865v.715h-.291v-1.906h.649c.122-.002.244.012.362.042.094.023.181.064.256.119.065.052.114.116.145.187.034.078.051.161.049.244.001.084-.017.167-.054.244-.035.073-.089.138-.157.191-.075.057-.162.1-.257.126-.113.031-.232.046-.35.044l-.352-.005zm0-.205h.352c.076.001.153-.009.225-.029.06-.018.115-.046.163-.082.044-.035.078-.078.099-.126.024-.051.036-.105.035-.16.003-.053-.007-.106-.029-.155s-.057-.094-.102-.13c-.111-.075-.251-.112-.391-.102h-.352v.786zM31.772 26.583h-.23c-.023.001-.046-.006-.064-.018-.016-.012-.029-.027-.038-.044l-.198-.461h-.993l-.205.461c-.008.017-.02.032-.036.043-.018.013-.042.02-.065.019h-.23l.872-1.909h.302l.884 1.909zm-1.439-.709h.82l-.346-.777c-.026-.058-.048-.118-.065-.179l-.033.1c-.01.03-.022.058-.032.081l-.343.776zM33.029 24.682c.017.008.032.02.044.034l1.272 1.439V24.673h.26v1.909h-.145c-.021.001-.041-.003-.06-.011-.018-.009-.034-.021-.047-.035l-1.271-1.438c.001.022.001.044 0 .066v1.419h-.26v-1.909h.154c.018 0 .036.003.052.009zM36.748 25.823v.758h-.291v-.758l-.804-1.15h.26c.022-.001.045.005.063.016.016.012.029.027.039.043l.503.742c.02.032.038.061.052.088s.026.054.036.081l.038-.082c.014-.03.031-.059.049-.087l.496-.747c.01-.015.023-.028.038-.04.017-.013.04-.02.063-.019h.263l-.806 1.155zM24.923 21.47c.127.014.255.025.384.035 1.962-.763 3.622-2.011 4.772-3.588s1.74-3.415 1.695-5.282l-2.162-1.879c.44 1.988.234 4.043-.594 5.935s-2.246 3.547-4.094 4.779z" />
    <path id="reuse-1" d="m24.151 21.383.058.01c1.975-1.228 3.481-2.942 4.323-4.921s.981-4.133.399-6.181l-3.08-2.676c1.246 2.2 1.747 4.661 1.446 7.098s-1.393 4.75-3.147 6.67zM34.596 14.841c-.523 2.052-1.794 3.902-3.624 5.276-.534.404-1.111.763-1.722 1.074 1.49-.38 2.859-1.053 4.003-1.966s2.03-2.042 2.592-3.3l-1.249-1.084z" />
    <path id="reuse-2" d="m34.106 14.539-1.778-1.545c-.034 1.762-.61 3.483-1.669 4.986s-2.562 2.731-4.352 3.559h.009c.399 0 .798-.021 1.194-.062 1.673-.593 3.151-1.537 4.303-2.748s1.94-2.65 2.295-4.189zM24.409 6.486 22.287 4.64c-1.897.637-3.528 1.756-4.68 3.212s-1.772 3.179-1.778 4.946c.007 1.952.763 3.846 2.149 5.383s3.322 2.628 5.501 3.101c1.946-2.06 3.085-4.605 3.252-7.266s-.647-5.299-2.323-7.53zM39.008 14.255c-.008-2.316-1.07-4.535-2.955-6.173s-4.439-2.561-7.105-2.567c-1.232-.001-2.453.196-3.602.582l12.99 11.286c.445-.998.673-2.058.672-3.128z" />
  </defs>
  <defs>
    <symbol id="Client-1" viewBox="0 0 61 32">
<path fill="#8e8f99" style="fill: var(--color1, #8e8f99)" d="M25.455 8.364l2.548 2.428-4.73-0.003v11.779h12.364v-4.504l2.545 2.425v-12.125h-12.727zM35.525 17.779l-7.225-6.884h7.225v6.884zM33.281 20.845h-8.052v-7.922h0.569v7.386h7.483v0.536zM26.835 24.75l-0.3-0.617h-0.248l0.435 0.817v0.476h0.225v-0.476l0.435-0.817h-0.247l-0.3 0.617zM27.941 24.132h0.053l0.488 1.293h-0.234l-0.105-0.303h-0.5l-0.104 0.303h-0.233l0.486-1.293h0.149zM27.704 24.946h0.378l-0.189-0.548-0.189 0.548zM29.266 24.732c-0.010-0.012-0.019-0.024-0.028-0.036-0.033-0.044-0.059-0.086-0.077-0.127s-0.028-0.084-0.028-0.128c0-0.067 0.014-0.125 0.042-0.174s0.067-0.086 0.118-0.112c0.051-0.027 0.11-0.040 0.178-0.040 0.066 0 0.122 0.013 0.17 0.040s0.085 0.061 0.11 0.104c0.026 0.043 0.039 0.091 0.039 0.142 0 0.041-0.007 0.078-0.022 0.112s-0.035 0.064-0.061 0.092c-0.026 0.028-0.056 0.054-0.091 0.079l-0.090 0.065 0.256 0.302c0.008-0.017 0.016-0.034 0.023-0.052 0.022-0.057 0.033-0.12 0.033-0.189h0.185c0 0.063-0.006 0.122-0.019 0.178s-0.031 0.108-0.058 0.156c-0.011 0.020-0.023 0.039-0.037 0.057l0.189 0.224h-0.248l-0.075-0.088c-0.041 0.031-0.085 0.055-0.133 0.072-0.063 0.022-0.13 0.034-0.201 0.034-0.086 0-0.16-0.016-0.223-0.047s-0.111-0.075-0.146-0.13c-0.034-0.055-0.051-0.118-0.051-0.189 0-0.053 0.011-0.099 0.033-0.139s0.052-0.078 0.090-0.112c0.035-0.032 0.075-0.063 0.12-0.095zM29.372 24.861l-0.027 0.019c-0.031 0.025-0.055 0.050-0.070 0.074s-0.025 0.044-0.029 0.064c-0.005 0.020-0.007 0.037-0.007 0.052 0 0.038 0.008 0.072 0.024 0.103s0.041 0.055 0.072 0.074c0.032 0.018 0.071 0.027 0.116 0.027 0.049 0 0.097-0.011 0.143-0.033 0.023-0.011 0.045-0.025 0.066-0.041l-0.288-0.338zM29.423 24.625l0.079-0.053c0.037-0.025 0.064-0.049 0.080-0.073s0.024-0.054 0.024-0.091c0-0.031-0.012-0.059-0.036-0.085s-0.057-0.039-0.1-0.039c-0.030 0-0.056 0.007-0.076 0.021s-0.036 0.032-0.047 0.055c-0.010 0.022-0.015 0.048-0.015 0.075 0 0.027 0.007 0.054 0.020 0.083s0.032 0.057 0.056 0.088c0.005 0.006 0.010 0.012 0.015 0.019zM31.685 25.004h-0.222c-0.006 0.056-0.020 0.104-0.041 0.143s-0.050 0.068-0.090 0.088c-0.039 0.020-0.090 0.030-0.154 0.030-0.052 0-0.097-0.010-0.134-0.031s-0.068-0.050-0.092-0.088c-0.024-0.038-0.041-0.083-0.053-0.136s-0.017-0.112-0.017-0.178v-0.109c0-0.069 0.006-0.13 0.019-0.183s0.032-0.099 0.058-0.136c0.025-0.037 0.057-0.064 0.095-0.083s0.082-0.028 0.133-0.028c0.062 0 0.112 0.011 0.151 0.032s0.067 0.051 0.087 0.091c0.020 0.040 0.033 0.087 0.039 0.143h0.222c-0.009-0.086-0.033-0.163-0.073-0.23s-0.094-0.119-0.165-0.157c-0.071-0.038-0.158-0.057-0.261-0.057-0.081 0-0.154 0.014-0.219 0.043s-0.12 0.070-0.166 0.123c-0.046 0.053-0.082 0.117-0.107 0.193s-0.036 0.159-0.036 0.252v0.107c0 0.093 0.012 0.177 0.036 0.252s0.059 0.139 0.105 0.193c0.046 0.053 0.1 0.093 0.164 0.122s0.136 0.043 0.216 0.043c0.104 0 0.193-0.019 0.265-0.057s0.129-0.090 0.17-0.155c0.040-0.066 0.064-0.142 0.071-0.226zM32.918 24.814v-0.071c0-0.098-0.013-0.185-0.039-0.262s-0.062-0.144-0.109-0.198c-0.047-0.055-0.104-0.097-0.17-0.125s-0.139-0.044-0.218-0.044c-0.079 0-0.152 0.015-0.218 0.044s-0.122 0.070-0.17 0.125c-0.047 0.054-0.084 0.12-0.11 0.198s-0.039 0.164-0.039 0.262v0.071c0 0.098 0.013 0.185 0.039 0.263s0.064 0.144 0.112 0.198c0.048 0.054 0.104 0.096 0.17 0.125s0.138 0.043 0.218 0.043c0.080 0 0.153-0.014 0.218-0.043s0.122-0.071 0.169-0.125c0.047-0.054 0.084-0.12 0.109-0.198s0.038-0.165 0.038-0.263zM32.695 24.741v0.073c0 0.072-0.007 0.136-0.021 0.192s-0.034 0.103-0.060 0.141c-0.027 0.038-0.059 0.067-0.098 0.086s-0.083 0.028-0.132 0.028c-0.049 0-0.093-0.009-0.131-0.028s-0.072-0.048-0.099-0.086c-0.027-0.038-0.048-0.086-0.062-0.141s-0.021-0.12-0.021-0.192v-0.073c0-0.072 0.007-0.136 0.021-0.191s0.035-0.102 0.061-0.139c0.027-0.038 0.060-0.066 0.099-0.085s0.082-0.029 0.131-0.029 0.093 0.010 0.132 0.029c0.039 0.019 0.072 0.047 0.099 0.085s0.048 0.084 0.061 0.139c0.014 0.055 0.021 0.119 0.021 0.191z"></path>
</symbol>
    <symbol id="Client-2" viewBox="0 0 61 32">
<path fill="#8e8f99" style="fill: var(--color1, #8e8f99)" d="M29.86 7.976h-0.050c-0.076-0.005-0.153-0.006-0.229-0.008v0h-0.166c-0.144 0-0.292 0.004-0.438 0.011-0.011-0.001-0.022-0.001-0.033 0-1.325 0.075-2.624 0.406-3.824 0.976l-0.157 0.076v8.051l0.368-0.125c0.323-0.111 0.667-0.211 1.023-0.303 0.962-0.247 1.951-0.378 2.944-0.391v1.058c-0.132 0.001-0.259 0.005-0.387 0.011h-0.030c-0.764 0.042-1.523 0.158-2.265 0.348-0.94 0.235-1.846 0.588-2.698 1.051v-10.326c0.885-0.516 1.838-0.904 2.831-1.151 0.872-0.225 1.768-0.341 2.668-0.344h0.155c0.186 0.005 0.367 0.013 0.537 0.026 0.448 0.032 0.893 0.102 1.329 0.212v1.041c-0.424-0.099-0.854-0.164-1.288-0.194-0.009-0.001-0.018-0.002-0.026-0.002-0.090-0.008-0.18-0.015-0.263-0.015zM31.692 9.040c0.231 0.018 0.47 0.026 0.712 0.026 0.946-0.003 1.888-0.124 2.805-0.36 0.939-0.236 1.846-0.59 2.697-1.052v10.142c-0.885 0.516-1.838 0.903-2.831 1.151-0.872 0.224-1.768 0.339-2.668 0.343-0.682 0.006-1.362-0.075-2.024-0.239v-10.208c0.156 0.036 0.317 0.069 0.481 0.097 0.269 0.045 0.552 0.079 0.828 0.099zM36.853 9.119l-0.368 0.124c-0.338 0.114-0.68 0.215-1.023 0.306-0.999 0.257-2.026 0.388-3.057 0.392-0.24 0-0.461-0.006-0.674-0.020l-0.293-0.019v8.283l0.252 0.022c0.234 0.020 0.475 0.030 0.718 0.030 0.812-0.003 1.621-0.108 2.407-0.312 0.648-0.162 1.278-0.389 1.881-0.676l0.157-0.076v-8.054z"></path>
<path fill="#8e8f99" style="fill: var(--color1, #8e8f99)" d="M24.632 22.259c-0.053-0.055-0.117-0.098-0.187-0.126s-0.146-0.042-0.222-0.039c-0.081-0.001-0.161 0.014-0.236 0.044-0.069 0.027-0.131 0.069-0.184 0.121s-0.092 0.116-0.119 0.185c-0.029 0.073-0.043 0.15-0.042 0.228v1.38c-0.003 0.097 0.015 0.194 0.054 0.283 0.033 0.071 0.080 0.134 0.138 0.185 0.055 0.046 0.12 0.080 0.19 0.098 0.067 0.019 0.136 0.028 0.206 0.029 0.077 0.001 0.153-0.016 0.223-0.048 0.069-0.030 0.131-0.074 0.184-0.128 0.051-0.054 0.092-0.116 0.12-0.185 0.029-0.070 0.044-0.144 0.044-0.22v-0.154h-0.361v0.123c0.001 0.042-0.006 0.084-0.021 0.123-0.012 0.029-0.030 0.056-0.052 0.078-0.022 0.018-0.048 0.032-0.075 0.040-0.024 0.008-0.050 0.012-0.075 0.013-0.032 0.004-0.065-0.001-0.095-0.014s-0.055-0.034-0.075-0.060c-0.034-0.055-0.051-0.12-0.048-0.185v-1.286c-0.002-0.071 0.013-0.142 0.044-0.206 0.019-0.029 0.045-0.052 0.076-0.067s0.066-0.020 0.1-0.016c0.031-0.001 0.062 0.005 0.090 0.019s0.052 0.034 0.071 0.059c0.040 0.053 0.061 0.118 0.060 0.185v0.119h0.357v-0.141c0.001-0.083-0.014-0.164-0.044-0.241-0.027-0.072-0.068-0.138-0.12-0.194z"></path>
<path fill="#8e8f99" style="fill: var(--color1, #8e8f99)" d="M26.774 22.243c-0.115-0.097-0.26-0.151-0.41-0.152-0.073 0-0.146 0.013-0.215 0.039-0.070 0.025-0.135 0.063-0.19 0.113-0.060 0.054-0.107 0.12-0.14 0.193-0.036 0.084-0.054 0.175-0.052 0.267v1.323c-0.002 0.093 0.015 0.186 0.052 0.271 0.033 0.071 0.080 0.134 0.14 0.185 0.055 0.051 0.12 0.091 0.19 0.117 0.069 0.025 0.142 0.038 0.215 0.039s0.146-0.013 0.215-0.039c0.072-0.026 0.138-0.066 0.195-0.117s0.104-0.115 0.136-0.185c0.037-0.085 0.055-0.178 0.052-0.271v-1.323c0.002-0.092-0.016-0.183-0.052-0.267-0.032-0.073-0.078-0.139-0.136-0.193zM26.606 24.027c0.003 0.035-0.002 0.071-0.014 0.104s-0.032 0.063-0.058 0.088c-0.048 0.040-0.108 0.062-0.17 0.062s-0.122-0.022-0.17-0.062c-0.025-0.024-0.045-0.054-0.058-0.088s-0.017-0.069-0.014-0.104v-1.323c-0.003-0.035 0.002-0.071 0.014-0.104s0.032-0.063 0.058-0.088c0.048-0.040 0.108-0.062 0.17-0.062s0.122 0.022 0.17 0.062c0.025 0.024 0.045 0.054 0.058 0.088s0.017 0.069 0.014 0.104v1.323z"></path>
<path fill="#8e8f99" style="fill: var(--color1, #8e8f99)" d="M29.588 24.618v-2.505h-0.347l-0.455 1.326h-0.006l-0.459-1.326h-0.343v2.505h0.358v-1.524h0.006l0.35 1.077h0.178l0.353-1.077h0.006v1.524h0.358z"></path>
<path fill="#8e8f99" style="fill: var(--color1, #8e8f99)" d="M31.621 22.289c-0.055-0.062-0.125-0.109-0.202-0.137-0.084-0.027-0.171-0.040-0.259-0.039h-0.532v2.505h0.357v-0.978h0.184c0.111 0.005 0.222-0.018 0.322-0.068 0.081-0.045 0.149-0.111 0.196-0.191 0.041-0.067 0.069-0.141 0.082-0.218 0.014-0.094 0.020-0.19 0.019-0.285 0.003-0.12-0.008-0.241-0.035-0.358-0.024-0.087-0.069-0.166-0.132-0.23zM31.437 23.052c-0.002 0.045-0.013 0.090-0.033 0.13-0.020 0.038-0.053 0.069-0.092 0.088-0.053 0.024-0.111 0.034-0.168 0.031h-0.163v-0.852h0.184c0.055-0.003 0.111 0.008 0.161 0.031 0.037 0.021 0.066 0.054 0.084 0.092 0.020 0.044 0.030 0.091 0.031 0.14 0 0.053 0 0.108 0 0.166s0.004 0.118 0 0.172h-0.004z"></path>
<path fill="#8e8f99" style="fill: var(--color1, #8e8f99)" d="M33.312 22.113h-0.293l-0.552 2.505h0.357l0.105-0.538h0.487l0.105 0.538h0.357l-0.566-2.505zM32.983 23.739l0.176-0.908h0.006l0.175 0.908h-0.357z"></path>
<path fill="#8e8f99" style="fill: var(--color1, #8e8f99)" d="M35.618 23.622h-0.006l-0.539-1.509h-0.343v2.505h0.357v-1.506h0.007l0.545 1.506h0.336v-2.505h-0.357v1.509z"></path>
<path fill="#8e8f99" style="fill: var(--color1, #8e8f99)" d="M37.799 22.113l-0.287 0.996h-0.007l-0.287-0.996h-0.378l0.49 1.446v1.059h0.357v-1.059l0.49-1.446h-0.378z"></path>
<path fill="#8e8f99" style="fill: var(--color1, #8e8f99)" d="M23.636 25.325h0.172v0.483h0.117v-0.483h0.171v-0.099h-0.46v0.099z"></path>
<path fill="#8e8f99" style="fill: var(--color1, #8e8f99)" d="M25.082 25.226l-0.225 0.582h0.124l0.048-0.132h0.232l0.050 0.132h0.127l-0.231-0.582h-0.124zM25.064 25.578l0.079-0.215 0.079 0.215h-0.158z"></path>
<path fill="#8e8f99" style="fill: var(--color1, #8e8f99)" d="M26.512 25.593h0.134v0.075c-0.039 0.031-0.088 0.049-0.138 0.049-0.023 0.001-0.047-0.003-0.068-0.013s-0.040-0.024-0.055-0.043c-0.031-0.044-0.046-0.098-0.043-0.152 0-0.129 0.056-0.194 0.167-0.194 0.029-0.003 0.059 0.005 0.083 0.022s0.041 0.042 0.049 0.071l0.115-0.022c-0.025-0.114-0.107-0.171-0.247-0.171-0.075-0.002-0.148 0.025-0.203 0.075-0.029 0.029-0.052 0.064-0.066 0.103s-0.020 0.080-0.017 0.121c-0.003 0.080 0.023 0.158 0.075 0.218 0.028 0.029 0.063 0.052 0.101 0.067s0.079 0.021 0.12 0.018c0.091 0.003 0.179-0.031 0.247-0.092v-0.229h-0.252v0.098z"></path>
<path fill="#8e8f99" style="fill: var(--color1, #8e8f99)" d="M27.972 25.226h-0.118v0.582h0.407v-0.099h-0.29v-0.483z"></path>
<path fill="#8e8f99" style="fill: var(--color1, #8e8f99)" d="M29.206 25.226h-0.118v0.582h0.118v-0.582z"></path>
<path fill="#8e8f99" style="fill: var(--color1, #8e8f99)" d="M30.413 25.615l-0.238-0.388h-0.114v0.582h0.109v-0.38l0.234 0.38h0.117v-0.582h-0.108v0.388z"></path>
<path fill="#8e8f99" style="fill: var(--color1, #8e8f99)" d="M31.504 25.552h0.29v-0.099h-0.29v-0.128h0.312v-0.099h-0.43v0.582h0.442v-0.099h-0.324v-0.157z"></path>
<path fill="#8e8f99" style="fill: var(--color1, #8e8f99)" d="M34.15 25.456h-0.229v-0.229h-0.117v0.582h0.117v-0.254h0.229v0.254h0.117v-0.582h-0.117v0.229z"></path>
<path fill="#8e8f99" style="fill: var(--color1, #8e8f99)" d="M35.247 25.552h0.291v-0.099h-0.291v-0.128h0.313v-0.099h-0.43v0.582h0.441v-0.099h-0.324v-0.157z"></path>
<path fill="#8e8f99" style="fill: var(--color1, #8e8f99)" d="M36.736 25.552c0.101-0.016 0.153-0.069 0.153-0.162 0.003-0.025-0.001-0.050-0.011-0.073s-0.026-0.042-0.046-0.057c-0.053-0.026-0.111-0.038-0.17-0.034h-0.247v0.582h0.117v-0.243h0.023c0.025-0.002 0.050 0.003 0.073 0.013 0.017 0.011 0.031 0.025 0.041 0.043l0.127 0.185h0.14l-0.071-0.114c-0.031-0.056-0.075-0.104-0.129-0.14zM36.618 25.471h-0.086v-0.146h0.092c0.040-0.003 0.080 0.001 0.119 0.014 0.008 0.008 0.015 0.017 0.020 0.027s0.007 0.022 0.006 0.033c-0 0.011-0.004 0.022-0.009 0.032s-0.013 0.019-0.022 0.025c-0.039 0.012-0.079 0.016-0.119 0.014z"></path>
<path fill="#8e8f99" style="fill: var(--color1, #8e8f99)" d="M37.858 25.552h0.289v-0.099h-0.289v-0.128h0.313v-0.099h-0.431v0.582h0.441v-0.099h-0.324v-0.157z"></path>
</symbol>
    <symbol id="Client-3" viewBox="0 0 61 32">
<path fill="#8e8f99" style="fill: var(--color1, #8e8f99)" d="M25.022 23.718c0.006 0 0.012 0.001 0.017 0.003s0.010 0.005 0.014 0.009l0.080 0.076c-0.062 0.061-0.139 0.11-0.226 0.143-0.101 0.036-0.21 0.054-0.32 0.051-0.103 0.002-0.206-0.015-0.301-0.048-0.086-0.031-0.163-0.077-0.227-0.136-0.065-0.061-0.114-0.132-0.147-0.209-0.035-0.086-0.052-0.177-0.051-0.268-0.001-0.092 0.017-0.183 0.055-0.269 0.035-0.078 0.088-0.149 0.156-0.209 0.069-0.059 0.151-0.105 0.241-0.136 0.099-0.033 0.204-0.049 0.31-0.048 0.098-0.002 0.196 0.013 0.288 0.044 0.079 0.029 0.152 0.070 0.216 0.121l-0.067 0.081c-0.005 0.006-0.010 0.011-0.017 0.015-0.008 0.005-0.018 0.007-0.027 0.006s-0.020-0.004-0.029-0.009l-0.036-0.021-0.050-0.027c-0.022-0.010-0.044-0.019-0.067-0.027-0.030-0.009-0.060-0.016-0.091-0.021-0.039-0.006-0.079-0.009-0.119-0.009-0.076-0.001-0.152 0.011-0.223 0.036-0.066 0.023-0.125 0.057-0.175 0.101-0.050 0.047-0.089 0.102-0.113 0.161-0.028 0.068-0.042 0.14-0.041 0.213-0.001 0.074 0.013 0.147 0.041 0.216 0.024 0.059 0.062 0.114 0.111 0.16 0.046 0.044 0.103 0.078 0.167 0.099 0.066 0.023 0.136 0.035 0.207 0.034 0.041 0 0.082-0.002 0.122-0.007 0.066-0.007 0.13-0.027 0.186-0.058 0.028-0.016 0.055-0.034 0.079-0.053 0.010-0.008 0.024-0.013 0.038-0.014z"></path>
<path fill="#8e8f99" style="fill: var(--color1, #8e8f99)" d="M27.34 23.338c0.001 0.091-0.017 0.181-0.054 0.267-0.033 0.077-0.084 0.148-0.151 0.207s-0.148 0.105-0.237 0.136c-0.197 0.064-0.414 0.064-0.61 0-0.089-0.031-0.169-0.077-0.236-0.136-0.067-0.060-0.119-0.131-0.153-0.209-0.072-0.173-0.072-0.362 0-0.534 0.034-0.078 0.086-0.149 0.153-0.21 0.067-0.057 0.148-0.102 0.236-0.131 0.196-0.065 0.414-0.065 0.61 0 0.089 0.031 0.17 0.077 0.237 0.136 0.066 0.060 0.118 0.13 0.152 0.207 0.037 0.086 0.056 0.177 0.054 0.268zM27.13 23.338c0.002-0.073-0.011-0.145-0.038-0.214-0.023-0.059-0.059-0.114-0.107-0.16-0.047-0.044-0.105-0.079-0.17-0.101-0.143-0.047-0.301-0.047-0.444 0-0.065 0.023-0.123 0.057-0.17 0.101-0.049 0.046-0.086 0.101-0.108 0.16-0.051 0.14-0.051 0.289 0 0.429 0.023 0.059 0.060 0.114 0.108 0.16 0.047 0.044 0.105 0.078 0.17 0.1 0.143 0.046 0.301 0.046 0.444 0 0.065-0.022 0.122-0.057 0.17-0.1 0.048-0.047 0.085-0.101 0.107-0.16 0.027-0.069 0.040-0.142 0.038-0.214z"></path>
<path fill="#8e8f99" style="fill: var(--color1, #8e8f99)" d="M28.922 23.563l0.021 0.048c0.008-0.017 0.015-0.033 0.023-0.048s0.016-0.032 0.026-0.047l0.513-0.797c0.010-0.014 0.019-0.022 0.029-0.025 0.014-0.004 0.028-0.005 0.042-0.004h0.152v1.296h-0.18v-0.953c0-0.012 0-0.026 0-0.040s-0.001-0.030 0-0.045l-0.516 0.808c-0.007 0.012-0.017 0.022-0.030 0.029s-0.028 0.011-0.044 0.011h-0.029c-0.016 0-0.031-0.004-0.044-0.011s-0.024-0.017-0.030-0.030l-0.531-0.813c0 0.015 0 0.031 0 0.046s0 0.029 0 0.041v0.953h-0.174v-1.293h0.152c0.014-0.001 0.029 0.001 0.042 0.004 0.012 0.005 0.022 0.014 0.028 0.025l0.524 0.798c0.010 0.015 0.019 0.030 0.026 0.046z"></path>
<path fill="#8e8f99" style="fill: var(--color1, #8e8f99)" d="M30.853 23.499v0.485h-0.201v-1.294h0.448c0.084-0.001 0.169 0.008 0.25 0.028 0.065 0.016 0.125 0.043 0.177 0.081 0.045 0.035 0.079 0.078 0.1 0.127 0.024 0.053 0.035 0.109 0.034 0.166 0.001 0.057-0.012 0.113-0.037 0.166-0.024 0.050-0.061 0.094-0.108 0.13-0.052 0.039-0.112 0.068-0.178 0.086-0.078 0.021-0.16 0.031-0.242 0.030l-0.243-0.003zM30.853 23.36h0.243c0.053 0.001 0.105-0.006 0.156-0.020 0.041-0.012 0.080-0.031 0.112-0.056 0.030-0.024 0.053-0.053 0.068-0.086 0.016-0.035 0.025-0.072 0.024-0.109 0.002-0.036-0.005-0.072-0.020-0.105s-0.040-0.064-0.070-0.088c-0.077-0.051-0.173-0.076-0.27-0.069h-0.243v0.533z"></path>
<path fill="#8e8f99" style="fill: var(--color1, #8e8f99)" d="M33.551 23.986h-0.159c-0.016 0-0.032-0.004-0.044-0.012-0.011-0.008-0.020-0.018-0.026-0.030l-0.136-0.313h-0.686l-0.142 0.313c-0.005 0.011-0.014 0.021-0.025 0.029-0.013 0.009-0.029 0.013-0.045 0.013h-0.159l0.602-1.296h0.209l0.61 1.296zM32.557 23.505h0.566l-0.239-0.527c-0.018-0.040-0.033-0.080-0.045-0.122l-0.023 0.068c-0.007 0.021-0.015 0.039-0.022 0.055l-0.237 0.527z"></path>
<path fill="#8e8f99" style="fill: var(--color1, #8e8f99)" d="M34.418 22.696c0.012 0.006 0.022 0.014 0.030 0.023l0.878 0.977c0-0.015 0-0.031 0-0.045s0-0.029 0-0.043v-0.918h0.18v1.296h-0.1c-0.014 0-0.028-0.002-0.041-0.008s-0.023-0.014-0.032-0.024l-0.877-0.976c0.001 0.015 0.001 0.030 0 0.045s0 0.027 0 0.039v0.924h-0.18v-1.296h0.106c0.012-0 0.025 0.002 0.036 0.006z"></path>
<path fill="#8e8f99" style="fill: var(--color1, #8e8f99)" d="M36.985 23.47v0.515h-0.201v-0.515l-0.555-0.78h0.18c0.016-0.001 0.031 0.003 0.043 0.011 0.011 0.008 0.020 0.018 0.027 0.029l0.347 0.503c0.014 0.021 0.026 0.041 0.036 0.060s0.018 0.037 0.025 0.055l0.026-0.056c0.010-0.020 0.021-0.040 0.034-0.059l0.343-0.507c0.007-0.010 0.016-0.019 0.026-0.027 0.012-0.009 0.028-0.014 0.043-0.013h0.182l-0.556 0.784z"></path>
<path fill="#8e8f99" style="fill: var(--color1, #8e8f99)" d="M28.823 20.515c0.087 0.009 0.176 0.017 0.265 0.024 1.354-0.518 2.5-1.365 3.294-2.436s1.201-2.318 1.17-3.585l-1.493-1.275c0.303 1.349 0.162 2.744-0.41 4.029s-1.55 2.408-2.826 3.244z"></path>
<path fill="#8e8f99" style="fill: var(--color1, #8e8f99)" d="M28.29 20.456l0.040 0.007c1.364-0.833 2.403-1.997 2.984-3.341s0.677-2.805 0.276-4.196l-2.126-1.816c0.86 1.493 1.206 3.164 0.998 4.818s-0.961 3.225-2.172 4.528z"></path>
<path fill="#8e8f99" style="fill: var(--color1, #8e8f99)" d="M35.5 16.015c-0.361 1.393-1.238 2.648-2.501 3.581-0.369 0.274-0.767 0.518-1.188 0.729 1.028-0.258 1.974-0.715 2.763-1.335s1.401-1.386 1.789-2.24l-0.862-0.736z"></path>
<path fill="#8e8f99" style="fill: var(--color1, #8e8f99)" d="M35.162 15.81l-1.228-1.049c-0.023 1.196-0.421 2.364-1.152 3.384s-1.768 1.854-3.004 2.416h0.006c0.275-0 0.551-0.014 0.824-0.042 1.155-0.403 2.175-1.044 2.97-1.865s1.339-1.799 1.584-2.844z"></path>
<path fill="#8e8f99" style="fill: var(--color1, #8e8f99)" d="M28.468 10.344l-1.465-1.253c-1.309 0.432-2.435 1.192-3.231 2.18s-1.223 2.158-1.227 3.357v0c0.005 1.325 0.527 2.611 1.483 3.654s2.293 1.784 3.797 2.105c1.343-1.398 2.13-3.126 2.245-4.932s-0.446-3.597-1.604-5.111z"></path>
<path fill="#8e8f99" style="fill: var(--color1, #8e8f99)" d="M38.545 15.617c-0.005-1.572-0.739-3.079-2.040-4.19s-3.064-1.738-4.904-1.743c-0.85-0.001-1.693 0.133-2.486 0.395l8.967 7.661c0.307-0.677 0.464-1.397 0.464-2.123z"></path>
</symbol>
    <symbol id="Client-4" viewBox="0 0 61 32">
<path fill="#8e8f99" style="fill: var(--color1, #8e8f99)" d="M20.392 13.643h-0.001c-0.867 0-1.571 0.634-1.571 1.416v0.001c0 0.782 0.703 1.416 1.571 1.416h0.001c0.867 0 1.571-0.634 1.571-1.416v-0.001c0-0.782-0.703-1.416-1.571-1.416z"></path>
<path fill="#8e8f99" style="fill: var(--color1, #8e8f99)" d="M31.986 13.19c-0.002-1.086-0.482-2.128-1.334-2.896s-2.007-1.201-3.212-1.203v0c-1.205 0.002-2.361 0.434-3.213 1.203s-1.332 1.81-1.335 2.896v5.991c0 0 9.092-0.913 9.093-5.99v-0.001z"></path>
<path fill="#8e8f99" style="fill: var(--color1, #8e8f99)" d="M15.636 21.147c0.002 0.756 0.336 1.48 0.929 2.015s1.396 0.836 2.234 0.838c0.838-0.002 1.641-0.303 2.234-0.838s0.927-1.259 0.929-2.014v-4.168c0 0-6.327 0.636-6.327 4.167zM18.8 21.894c-0.164 0-0.324-0.044-0.46-0.126s-0.242-0.199-0.305-0.335-0.079-0.287-0.047-0.432c0.032-0.145 0.111-0.278 0.227-0.382s0.263-0.176 0.424-0.204c0.161-0.029 0.327-0.014 0.479 0.043s0.281 0.152 0.372 0.275c0.091 0.123 0.14 0.267 0.14 0.415 0 0.098-0.021 0.196-0.062 0.287s-0.102 0.174-0.179 0.243c-0.077 0.070-0.168 0.125-0.269 0.163s-0.209 0.057-0.318 0.057v-0.003z"></path>
<path fill="#8e8f99" style="fill: var(--color1, #8e8f99)" d="M24.585 20.551v1.551h-0.32v-1.551h0.32zM25.203 21.214v0.249h-0.705v-0.249h0.705zM25.278 20.551v0.25h-0.78v-0.25h0.78zM26.737 21.29v0.074c0 0.118-0.016 0.224-0.048 0.317s-0.077 0.174-0.135 0.24c-0.058 0.065-0.128 0.115-0.209 0.15s-0.169 0.052-0.267 0.052c-0.097 0-0.186-0.017-0.267-0.052s-0.15-0.085-0.209-0.15c-0.059-0.066-0.105-0.146-0.137-0.24s-0.048-0.2-0.048-0.317v-0.074c0-0.119 0.016-0.224 0.048-0.317s0.077-0.174 0.135-0.24c0.059-0.066 0.129-0.116 0.209-0.151s0.17-0.052 0.267-0.052c0.098 0 0.187 0.017 0.267 0.052s0.151 0.085 0.209 0.151c0.059 0.066 0.104 0.146 0.136 0.24s0.049 0.199 0.049 0.317zM26.414 21.364v-0.076c0-0.082-0.007-0.155-0.022-0.217s-0.037-0.115-0.066-0.158-0.065-0.075-0.107-0.096c-0.042-0.022-0.090-0.033-0.144-0.033s-0.102 0.011-0.144 0.033c-0.041 0.021-0.076 0.053-0.105 0.096s-0.050 0.095-0.065 0.158c-0.015 0.063-0.022 0.135-0.022 0.217v0.076c0 0.082 0.007 0.154 0.022 0.217s0.037 0.115 0.066 0.159c0.029 0.043 0.065 0.075 0.107 0.097s0.090 0.033 0.144 0.033c0.054 0 0.102-0.011 0.144-0.033s0.077-0.054 0.105-0.097c0.028-0.043 0.050-0.096 0.065-0.159s0.022-0.136 0.022-0.217zM27.775 21.696c0-0.028-0.004-0.053-0.013-0.075s-0.023-0.043-0.045-0.062c-0.022-0.019-0.053-0.038-0.093-0.056s-0.091-0.038-0.154-0.058c-0.070-0.023-0.137-0.048-0.2-0.077s-0.118-0.061-0.166-0.099c-0.048-0.038-0.085-0.083-0.113-0.133s-0.040-0.109-0.040-0.176c0-0.065 0.014-0.123 0.043-0.176s0.068-0.099 0.119-0.136c0.051-0.038 0.111-0.068 0.181-0.088s0.147-0.031 0.231-0.031c0.114 0 0.214 0.021 0.299 0.062s0.151 0.098 0.198 0.169c0.048 0.072 0.071 0.154 0.071 0.246h-0.317c0-0.045-0.010-0.085-0.029-0.119s-0.047-0.062-0.085-0.082c-0.038-0.020-0.085-0.030-0.143-0.030-0.055 0-0.102 0.009-0.138 0.026s-0.065 0.039-0.083 0.067c-0.018 0.028-0.028 0.059-0.028 0.094 0 0.026 0.006 0.050 0.019 0.071s0.033 0.041 0.060 0.060 0.059 0.036 0.097 0.052c0.038 0.016 0.083 0.032 0.133 0.048 0.084 0.026 0.159 0.054 0.223 0.086s0.119 0.068 0.162 0.108c0.043 0.040 0.076 0.085 0.098 0.135s0.033 0.108 0.033 0.172c0 0.067-0.013 0.128-0.039 0.181s-0.064 0.098-0.114 0.135c-0.050 0.037-0.109 0.065-0.178 0.084s-0.146 0.029-0.231 0.029c-0.077 0-0.152-0.010-0.227-0.030s-0.142-0.052-0.203-0.093c-0.060-0.041-0.109-0.094-0.145-0.158s-0.054-0.14-0.054-0.227h0.321c0 0.048 0.007 0.089 0.022 0.122s0.036 0.060 0.063 0.081c0.028 0.021 0.060 0.035 0.098 0.045s0.080 0.014 0.126 0.014c0.055 0 0.101-0.008 0.136-0.023s0.063-0.037 0.080-0.065c0.018-0.028 0.027-0.059 0.027-0.094zM29.005 20.551v1.551h-0.319v-1.551h0.319zM29.482 20.551v0.25h-1.266v-0.25h1.266zM30.705 21.853v0.249h-0.826v-0.249h0.826zM29.984 20.551v1.551h-0.32v-1.551h0.32zM30.598 21.183v0.243h-0.718v-0.243h0.718zM30.704 20.551v0.25h-0.825v-0.25h0.825zM30.892 20.551h0.578c0.119 0 0.221 0.018 0.306 0.053s0.152 0.088 0.198 0.158 0.069 0.155 0.069 0.257c0 0.083-0.014 0.154-0.043 0.214s-0.067 0.108-0.118 0.148c-0.050 0.039-0.11 0.070-0.178 0.094l-0.101 0.053h-0.503l-0.002-0.249h0.374c0.056 0 0.103-0.010 0.14-0.030s0.065-0.048 0.083-0.083c0.019-0.035 0.029-0.077 0.029-0.124 0-0.050-0.009-0.093-0.028-0.129s-0.047-0.064-0.084-0.083-0.085-0.029-0.142-0.029h-0.259v1.301h-0.32v-1.551zM31.759 22.102l-0.354-0.691 0.338-0.002 0.358 0.679v0.015h-0.342zM33.437 21.549h-0.395v-0.249h0.395c0.061 0 0.111-0.010 0.149-0.030s0.066-0.049 0.084-0.085c0.018-0.036 0.027-0.077 0.027-0.122s-0.009-0.089-0.027-0.129c-0.018-0.040-0.046-0.072-0.084-0.096s-0.088-0.036-0.149-0.036h-0.284v1.301h-0.32v-1.551h0.604c0.121 0 0.225 0.022 0.312 0.066s0.154 0.103 0.2 0.18c0.046 0.077 0.069 0.164 0.069 0.263 0 0.1-0.023 0.187-0.069 0.26s-0.113 0.13-0.2 0.169c-0.087 0.040-0.191 0.060-0.312 0.060zM35.28 21.853v0.249h-0.826v-0.249h0.826zM34.559 20.551v1.551h-0.32v-1.551h0.32zM35.172 21.183v0.243h-0.718v-0.243h0.718zM35.279 20.551v0.25h-0.825v-0.25h0.825zM36.181 20.551v1.551h-0.319v-1.551h0.319zM36.659 20.551v0.25h-1.266v-0.25h1.266zM37.881 21.853v0.249h-0.825v-0.249h0.825zM37.16 20.551v1.551h-0.32v-1.551h0.32zM37.774 21.183v0.243h-0.718v-0.243h0.718zM37.88 20.551v0.25h-0.824v-0.25h0.824zM38.068 20.551h0.579c0.119 0 0.22 0.018 0.306 0.053s0.152 0.088 0.198 0.158 0.069 0.155 0.069 0.257c0 0.083-0.014 0.154-0.043 0.214s-0.067 0.108-0.118 0.148c-0.051 0.039-0.11 0.070-0.178 0.094l-0.101 0.053h-0.503l-0.002-0.249h0.374c0.056 0 0.103-0.010 0.139-0.030s0.065-0.048 0.083-0.083c0.019-0.035 0.029-0.077 0.029-0.124 0-0.050-0.009-0.093-0.028-0.129s-0.047-0.064-0.084-0.083c-0.037-0.019-0.085-0.029-0.141-0.029h-0.259v1.301h-0.32v-1.551zM38.935 22.102l-0.354-0.691 0.338-0.002 0.358 0.679v0.015h-0.342zM40.273 21.696c0-0.028-0.004-0.053-0.013-0.075-0.008-0.023-0.023-0.043-0.045-0.062s-0.053-0.038-0.093-0.056c-0.040-0.018-0.091-0.038-0.154-0.058-0.071-0.023-0.137-0.048-0.2-0.077s-0.118-0.061-0.166-0.099c-0.048-0.038-0.085-0.083-0.113-0.133s-0.040-0.109-0.040-0.176c0-0.065 0.014-0.123 0.043-0.176s0.068-0.099 0.119-0.136c0.051-0.038 0.112-0.068 0.181-0.088 0.071-0.021 0.148-0.031 0.231-0.031 0.114 0 0.214 0.021 0.299 0.062s0.151 0.098 0.198 0.169c0.048 0.072 0.071 0.154 0.071 0.246h-0.317c0-0.045-0.009-0.085-0.029-0.119-0.018-0.035-0.047-0.062-0.085-0.082s-0.085-0.030-0.143-0.030c-0.055 0-0.101 0.009-0.139 0.026s-0.064 0.039-0.083 0.067c-0.019 0.028-0.028 0.059-0.028 0.094 0 0.026 0.006 0.050 0.019 0.071s0.033 0.041 0.060 0.060c0.026 0.018 0.059 0.036 0.097 0.052s0.083 0.032 0.133 0.048c0.085 0.026 0.159 0.054 0.223 0.086s0.119 0.068 0.162 0.108 0.076 0.085 0.098 0.135c0.022 0.050 0.033 0.108 0.033 0.172 0 0.067-0.013 0.128-0.039 0.181s-0.064 0.098-0.114 0.135c-0.049 0.037-0.109 0.065-0.178 0.084s-0.146 0.029-0.231 0.029c-0.076 0-0.152-0.010-0.227-0.030s-0.142-0.052-0.203-0.093c-0.060-0.041-0.109-0.094-0.145-0.158s-0.054-0.14-0.054-0.227h0.321c0 0.048 0.007 0.089 0.022 0.122s0.036 0.060 0.063 0.081c0.028 0.021 0.060 0.035 0.098 0.045s0.080 0.014 0.125 0.014c0.056 0 0.101-0.008 0.136-0.023 0.036-0.016 0.063-0.037 0.080-0.065s0.027-0.059 0.027-0.094z"></path>
</symbol>
    <symbol id="Client-5" viewBox="0 0 61 32">
<path fill="#8e8f99" style="fill: var(--color1, #8e8f99)" d="M21.379 21.954c0.089 0.099 0.137 0.224 0.134 0.352 0.005 0.083-0.012 0.167-0.048 0.244s-0.091 0.146-0.16 0.201c-0.173 0.118-0.388 0.176-0.605 0.162h-1.064v-2.23h1.042c0.206-0.012 0.41 0.040 0.577 0.148 0.067 0.051 0.121 0.115 0.156 0.187s0.051 0.151 0.046 0.23c0.006 0.123-0.037 0.244-0.121 0.341-0.081 0.089-0.193 0.15-0.317 0.174 0.141 0.023 0.268 0.091 0.359 0.191zM20.131 21.617h0.445c0.101 0.007 0.202-0.020 0.283-0.074 0.033-0.027 0.059-0.061 0.076-0.099s0.023-0.078 0.020-0.119c0.003-0.040-0.004-0.081-0.020-0.119s-0.042-0.072-0.074-0.099c-0.084-0.056-0.188-0.083-0.292-0.075h-0.438v0.585zM20.903 22.472c0.036-0.028 0.064-0.063 0.082-0.102s0.026-0.082 0.023-0.124c0.003-0.043-0.006-0.086-0.024-0.126s-0.047-0.075-0.083-0.103c-0.087-0.058-0.194-0.087-0.302-0.081h-0.467v0.613h0.473c0.106 0.006 0.212-0.022 0.299-0.077z"></path>
<path fill="#8e8f99" style="fill: var(--color1, #8e8f99)" d="M23.509 22.912l-0.58-0.872h-0.218v0.872h-0.499v-2.23h0.944c0.238-0.015 0.473 0.053 0.657 0.19 0.132 0.121 0.212 0.28 0.224 0.45s-0.042 0.337-0.154 0.473c-0.116 0.12-0.276 0.2-0.45 0.227l0.617 0.891h-0.542zM22.711 21.737h0.408c0.283 0 0.425-0.113 0.425-0.338 0.003-0.046-0.005-0.092-0.023-0.135s-0.046-0.082-0.081-0.115c-0.090-0.067-0.205-0.099-0.321-0.090h-0.413l0.005 0.679z"></path>
<path fill="#8e8f99" style="fill: var(--color1, #8e8f99)" d="M26.234 22.464h-0.993l-0.175 0.449h-0.523l0.912-2.205h0.565l0.909 2.205h-0.523l-0.172-0.449zM26.101 22.126l-0.363-0.941-0.363 0.941h0.726z"></path>
<path fill="#8e8f99" style="fill: var(--color1, #8e8f99)" d="M29.645 22.913h-0.495l-1.11-1.516v1.516h-0.494v-2.23h0.494l1.11 1.525v-1.525h0.495v2.23z"></path>
<path fill="#8e8f99" style="fill: var(--color1, #8e8f99)" d="M32.469 22.379c-0.102 0.168-0.258 0.305-0.448 0.393-0.215 0.098-0.454 0.146-0.696 0.141h-0.881v-2.23h0.881c0.241-0.006 0.48 0.041 0.696 0.137 0.189 0.086 0.346 0.222 0.448 0.389 0.102 0.181 0.155 0.382 0.155 0.585s-0.053 0.404-0.155 0.585zM31.903 22.325c0.141-0.148 0.219-0.337 0.219-0.532s-0.078-0.384-0.219-0.532c-0.171-0.134-0.393-0.202-0.62-0.19h-0.344v1.443h0.344c0.226 0.013 0.449-0.055 0.62-0.19z"></path>
<path fill="#8e8f99" style="fill: var(--color1, #8e8f99)" d="M26.543 8.279c0 0 6.388 2.171 6.252 5.313v5.314c0 0-6.383-2.172-6.25-5.314l-0.002-5.313z"></path>
<path fill="#8e8f99" style="fill: var(--color1, #8e8f99)" d="M38.487 17.662c1.207-0.747 2.602-1.21 4.059-1.346v-1.663c-1.679 0.582-3.102 1.638-4.059 3.010z"></path>
<path fill="#8e8f99" style="fill: var(--color1, #8e8f99)" d="M37.762 18.163c0.987-1.79 2.699-3.171 4.783-3.86v-4.793c0 0-9.097 3.093-8.905 7.567v7.566c0 0 0.405-0.138 1.043-0.398 0-0.242 0-0.486 0.029-0.731 0.188-2.077 1.285-4.002 3.050-5.351z"></path>
<path fill="#8e8f99" style="fill: var(--color1, #8e8f99)" d="M36.897 20.973c0.048-0.525 0.155-1.044 0.319-1.549-1.099 1.165-1.764 2.611-1.902 4.134-0.013 0.144-0.021 0.288-0.024 0.436 0.517-0.223 1.118-0.502 1.75-0.83-0.161-0.721-0.209-1.458-0.142-2.191z"></path>
<path fill="#8e8f99" style="fill: var(--color1, #8e8f99)" d="M37.259 21.001c-0.060 0.663-0.023 1.33 0.113 1.984 2.485-1.339 5.278-3.408 5.171-5.908v-0.218c-1.776 0.179-3.437 0.878-4.729 1.989-0.302 0.689-0.489 1.414-0.554 2.153z"></path>
</symbol>
    <symbol id="Client-6" viewBox="0 0 61 32">
<path fill="#8e8f99" style="fill: var(--color1, #8e8f99)" d="M31.102 15.798c-0.161-0.215-0.239-0.469-0.22-0.724v-1.050c0-0.322 0.073-0.567 0.219-0.734s0.397-0.251 0.753-0.25c0.334 0 0.572 0.071 0.712 0.214 0.153 0.182 0.228 0.404 0.21 0.628v0.247h-0.598v-0.25c0.002-0.082-0.004-0.164-0.017-0.245-0.009-0.055-0.039-0.107-0.085-0.145-0.061-0.042-0.139-0.062-0.217-0.057-0.082-0.005-0.163 0.016-0.228 0.060-0.052 0.043-0.087 0.099-0.099 0.16-0.017 0.086-0.025 0.173-0.024 0.26v1.275c-0.009 0.123 0.017 0.246 0.077 0.358 0.030 0.038 0.071 0.068 0.119 0.087s0.102 0.026 0.154 0.020c0.077 0.005 0.153-0.015 0.212-0.058 0.049-0.042 0.080-0.096 0.089-0.155 0.014-0.085 0.020-0.17 0.019-0.255v-0.259h0.598v0.236c0.017 0.234-0.056 0.466-0.207 0.66-0.137 0.156-0.371 0.234-0.716 0.234s-0.604-0.083-0.752-0.256z"></path>
<path fill="#8e8f99" style="fill: var(--color1, #8e8f99)" d="M33.591 15.808c-0.151-0.163-0.227-0.402-0.227-0.717v-1.105c0-0.312 0.076-0.548 0.227-0.708s0.404-0.24 0.758-0.239c0.352 0 0.603 0.080 0.754 0.239s0.228 0.396 0.228 0.708v1.105c0 0.312-0.077 0.551-0.23 0.716s-0.404 0.247-0.752 0.247-0.605-0.083-0.758-0.246zM34.628 15.543c0.054-0.102 0.079-0.215 0.072-0.327v-1.353c0.007-0.11-0.017-0.22-0.071-0.321-0.030-0.039-0.073-0.069-0.122-0.088s-0.104-0.025-0.158-0.019c-0.054-0.006-0.108 0-0.158 0.019s-0.092 0.049-0.123 0.088c-0.054 0.1-0.079 0.21-0.072 0.32v1.359c-0.008 0.112 0.017 0.225 0.072 0.327 0.035 0.034 0.078 0.062 0.126 0.081s0.101 0.029 0.154 0.029 0.105-0.010 0.154-0.029c0.048-0.019 0.091-0.047 0.126-0.081v-0.006z"></path>
<path fill="#8e8f99" style="fill: var(--color1, #8e8f99)" d="M36.050 13.071h0.644l0.484 2.038 0.495-2.038h0.627l0.063 2.942h-0.463l-0.049-2.045-0.478 2.045h-0.371l-0.495-2.052-0.046 2.052h-0.468l0.058-2.942z"></path>
<path fill="#8e8f99" style="fill: var(--color1, #8e8f99)" d="M39.085 13.071h1.003c0.577 0 0.867 0.278 0.867 0.835 0 0.533-0.304 0.8-0.912 0.799h-0.342v1.308h-0.619l0.004-2.942zM39.941 14.329c0.061 0.007 0.123 0.002 0.182-0.014s0.113-0.043 0.158-0.079c0.071-0.099 0.102-0.216 0.089-0.332 0.003-0.090-0.007-0.18-0.029-0.267-0.009-0.029-0.024-0.057-0.046-0.081s-0.048-0.044-0.078-0.059c-0.086-0.036-0.181-0.052-0.276-0.047h-0.24v0.879h0.24z"></path>
<path fill="#8e8f99" style="fill: var(--color1, #8e8f99)" d="M41.847 13.071h0.665l0.682 2.942h-0.577l-0.135-0.678h-0.593l-0.139 0.678h-0.585l0.682-2.942zM42.415 14.994l-0.231-1.235-0.232 1.235h0.463z"></path>
<path fill="#8e8f99" style="fill: var(--color1, #8e8f99)" d="M43.745 13.071h0.433l0.829 1.678v-1.678h0.514v2.942h-0.412l-0.835-1.752v1.752h-0.531l0.001-2.942z"></path>
<path fill="#8e8f99" style="fill: var(--color1, #8e8f99)" d="M46.725 14.892l-0.689-1.816h0.581l0.421 1.167 0.395-1.167h0.568l-0.681 1.816v1.122h-0.594v-1.122z"></path>
<path fill="#8e8f99" style="fill: var(--color1, #8e8f99)" d="M32.057 17.299v0.154h-0.505v1.195h-0.212v-1.195h-0.508v-0.154h1.224z"></path>
<path fill="#8e8f99" style="fill: var(--color1, #8e8f99)" d="M33.641 18.649h-0.163c-0.017 0.001-0.033-0.004-0.046-0.013-0.012-0.008-0.022-0.019-0.027-0.031l-0.146-0.32h-0.701l-0.146 0.32c-0.004 0.013-0.012 0.026-0.022 0.036-0.013 0.009-0.029 0.014-0.046 0.013h-0.163l0.619-1.349h0.215l0.626 1.344zM32.616 18.148h0.584l-0.248-0.549c-0.018-0.042-0.034-0.084-0.046-0.127-0.009 0.026-0.016 0.050-0.024 0.072l-0.022 0.057-0.245 0.548z"></path>
<path fill="#8e8f99" style="fill: var(--color1, #8e8f99)" d="M34.708 18.516c0.039 0.002 0.078 0.002 0.116 0 0.033-0.003 0.067-0.008 0.099-0.016 0.030-0.006 0.060-0.015 0.089-0.025 0.027-0.010 0.054-0.021 0.083-0.033v-0.303h-0.248c-0.006 0-0.012-0-0.018-0.002s-0.011-0.005-0.015-0.008c-0.004-0.003-0.007-0.007-0.009-0.011s-0.003-0.009-0.003-0.014v-0.104h0.48v0.517c-0.039 0.024-0.081 0.046-0.124 0.064s-0.090 0.034-0.137 0.046c-0.051 0.013-0.102 0.022-0.155 0.028-0.060 0.006-0.12 0.009-0.181 0.009-0.107 0.001-0.213-0.016-0.312-0.050-0.093-0.032-0.177-0.080-0.248-0.141-0.069-0.062-0.123-0.134-0.16-0.214-0.039-0.089-0.058-0.184-0.057-0.28-0.001-0.096 0.018-0.192 0.056-0.282 0.036-0.080 0.090-0.153 0.16-0.214s0.155-0.108 0.248-0.14c0.106-0.034 0.219-0.051 0.332-0.050 0.058-0 0.115 0.004 0.172 0.012 0.050 0.007 0.1 0.018 0.147 0.034 0.043 0.014 0.085 0.032 0.124 0.053 0.038 0.021 0.074 0.045 0.108 0.070l-0.059 0.083c-0.005 0.008-0.012 0.014-0.020 0.018s-0.018 0.007-0.028 0.007c-0.014-0-0.027-0.004-0.038-0.011-0.019-0.009-0.038-0.019-0.061-0.032-0.026-0.014-0.054-0.026-0.083-0.036-0.037-0.013-0.075-0.023-0.114-0.030-0.052-0.008-0.105-0.012-0.157-0.012-0.082-0.001-0.163 0.012-0.239 0.037-0.069 0.024-0.131 0.060-0.182 0.107-0.051 0.049-0.090 0.106-0.115 0.168-0.055 0.146-0.055 0.304 0 0.45 0.027 0.063 0.069 0.121 0.124 0.17 0.051 0.046 0.112 0.083 0.181 0.107 0.079 0.023 0.162 0.032 0.245 0.027z"></path>
<path fill="#8e8f99" style="fill: var(--color1, #8e8f99)" d="M36.681 18.495h0.676v0.154h-0.883v-1.349h0.212l-0.005 1.195z"></path>
<path fill="#8e8f99" style="fill: var(--color1, #8e8f99)" d="M38.061 18.649h-0.212v-1.349h0.212v1.349z"></path>
<path fill="#8e8f99" style="fill: var(--color1, #8e8f99)" d="M38.848 17.306c0.012 0.006 0.023 0.015 0.032 0.025l0.905 1.017c-0.001-0.016-0.001-0.032 0-0.048 0-0.015 0-0.030 0-0.044v-0.962h0.184v1.355h-0.107c-0.016 0.001-0.032-0.002-0.046-0.008-0.013-0.007-0.024-0.015-0.033-0.026l-0.904-1.016c0 0.016 0 0.031 0 0.046s0 0.029 0 0.042v0.962h-0.177v-1.349h0.11c0.012 0 0.024 0.002 0.035 0.006z"></path>
<path fill="#8e8f99" style="fill: var(--color1, #8e8f99)" d="M41.529 17.299v0.148h-0.751v0.445h0.608v0.143h-0.608v0.46h0.751v0.148h-0.968v-1.346h0.968z"></path>
<path fill="#8e8f99" style="fill: var(--color1, #8e8f99)" d="M19.344 8.967l9.401 2.303v8.071l-9.401-2.302v-8.072zM18.741 8.279v9.152l10.605 2.599v-9.151l-10.605-2.6z"></path>
<path fill="#8e8f99" style="fill: var(--color1, #8e8f99)" d="M24.425 24.279l-10.607-2.601v-9.151l10.607 2.6v9.152z"></path>
<path fill="#8e8f99" style="fill: var(--color1, #8e8f99)" d="M18.917 8.863l9.278 2.274-3.946 3.406-9.279-2.276 3.947-3.405zM18.741 8.279l-4.923 4.248 10.607 2.6 4.921-4.248-10.605-2.6z"></path>
<path fill="#8e8f99" style="fill: var(--color1, #8e8f99)" d="M25.021 23.764l4.325-3.733-4.325-1.061v4.793z"></path>
</symbol>
    
    <symbol id="astronaut-1" viewBox="0 0 32 32">
      <path fill="#2196f3" style="fill: var(--color2, #2196f3)" d="M31.974 4.524c-0.064-0.191-0.227-0.332-0.427-0.362l-0.003-0-1.911-0.278-0.855-1.731c-0.179-0.365-0.777-0.365-0.956 0l-0.855 1.731-1.911 0.278c-0.26 0.039-0.457 0.26-0.457 0.528 0 0.15 0.062 0.285 0.161 0.382l1.383 1.348-0.326 1.903c-0.034 0.2 0.048 0.402 0.212 0.522 0.166 0.12 0.383 0.135 0.562 0.040l1.709-0.899 1.709 0.899c0.072 0.038 0.157 0.061 0.247 0.061 0.295 0 0.534-0.239 0.534-0.534 0-0.031-0.003-0.062-0.008-0.092l0 0.003-0.326-1.903 1.383-1.348c0.099-0.097 0.161-0.233 0.161-0.382 0-0.059-0.009-0.115-0.027-0.168l0.001 0.004zM29.511 5.851c-0.126 0.122-0.183 0.299-0.153 0.472l0.191 1.114-1-0.526c-0.072-0.039-0.158-0.062-0.249-0.062s-0.177 0.023-0.252 0.063l0.003-0.001-1 0.526 0.191-1.114c0.005-0.027 0.008-0.059 0.008-0.091 0-0.149-0.061-0.285-0.16-0.381l-0-0-0.811-0.79 1.119-0.162c0.174-0.025 0.324-0.134 0.402-0.292l0.5-1.013 0.5 1.013c0.078 0.158 0.228 0.267 0.402 0.292l1.119 0.162-0.809 0.79zM26.134 20.522h-1.067v1.067h1.067v-1.067zM26.134 22.656h-1.067v1.066h1.067v-1.066zM27.2 21.589h-1.067v1.067h1.067v-1.067zM25.067 21.589h-1.067v1.067h1.067v-1.067zM22.4 26.389h-1.067v1.067h1.067v-1.067zM22.4 28.523h-1.067v1.067h1.067v-1.067zM23.467 27.456h-1.067v1.067h1.067v-1.067zM21.334 27.456h-1.067v1.067h1.067v-1.067zM16 24.256h-1.066v1.067h1.066v-1.067zM16 26.389h-1.066v1.067h1.066v-1.067zM17.067 25.322h-1.067v1.067h1.067v-1.067zM14.934 25.322h-1.067v1.067h1.067v-1.067zM5.867 6.122h-1.066v1.066h1.066v-1.066zM5.867 8.256h-1.066v1.066h1.066v-1.066zM6.933 7.189h-1.067v1.067h1.066v-1.067zM4.8 7.189h-1.067v1.067h1.067v-1.067z"></path>
      <path fill="#212121" style="fill: var(--color1, #212121)" d="M24.715 14.16c-0.28-0.376-0.698-0.636-1.179-0.703l-0.009-0.001c-0.076-0.012-0.164-0.018-0.254-0.018-0.411 0-0.789 0.139-1.090 0.373l0.004-0.003-1.253 0.96-1.898 1.417-1.358-0.541c2.421-1.086 4.113-3.508 4.113-6.32 0-3.823-3.122-6.934-6.961-6.934s-6.961 3.11-6.961 6.934c0 1.386 0.415 2.674 1.12 3.759l-2.768-0.024c-0.009 0-0.016 0.005-0.023 0.005-0.057 0.003-0.11 0.014-0.159 0.033l0.004-0.001c-0.013 0.005-0.026 0.007-0.038 0.013-0.006 0.003-0.013 0.003-0.019 0.006l-3.233 1.596c-0 0-0.001 0-0.001 0.001l-1.893 0.91c-0.024 0.011-0.045 0.023-0.065 0.036l0.001-0.001c-0.482 0.324-0.795 0.867-0.795 1.483 0 0.297 0.073 0.577 0.201 0.823l-0.005-0.010c0.22 0.424 0.592 0.742 1.043 0.885l0.013 0.003c0.161 0.053 0.345 0.083 0.537 0.083 0.308 0 0.598-0.078 0.851-0.216l-0.009 0.005 1.388-0.738 2.264-1.169 1.357-0.008-5.442 5.415c0 0.001-0.001 0.001-0.001 0.001l-1.339 1.333c-0.303 0.299-0.491 0.714-0.491 1.173 0 0.002 0 0.003 0 0.005v-0c0.002 0.919 0.748 1.664 1.667 1.664 0.001 0 0.002 0 0.002 0h-0c0.428 0 0.854-0.162 1.18-0.485l1.314-1.309 1.741-1.3 0.901 0.897-3.102 3.088c-0.303 0.299-0.491 0.714-0.491 1.173 0 0.001 0 0.003 0 0.004v-0c0 0.445 0.174 0.864 0.49 1.179 0.302 0.3 0.717 0.485 1.176 0.485 0.001 0 0.002 0 0.003 0h-0c0.427 0 0.855-0.162 1.18-0.485l4.488-4.472c0.007-0.006 0.016-0.009 0.022-0.016l5.166-5.658 3.471 0.494c0.025 0.004 0.050 0.006 0.075 0.006 0.064 0 0.127-0.016 0.187-0.038 0.017-0.006 0.032-0.015 0.049-0.023 0.019-0.010 0.039-0.015 0.058-0.027l3.213-2.133c0.012-0.008 0.018-0.021 0.029-0.030 0.013-0.010 0.029-0.014 0.041-0.026l1.271-1.191c0.348-0.326 0.564-0.787 0.564-1.3 0-0.4-0.132-0.769-0.355-1.066l0.003 0.005zM2.13 17.77c-0.098 0.054-0.215 0.086-0.34 0.086-0.078 0-0.153-0.013-0.224-0.036l0.005 0.001c-0.294-0.093-0.504-0.364-0.504-0.683 0-0.235 0.114-0.444 0.289-0.575l0.002-0.001 1.314-0.632 0.316 0.924 0.133 0.389-0.992 0.527zM5.627 15.942l-1.548 0.8-0.255-0.746-0.184-0.537 2.027-1.001-0.040 1.484zM20.727 9.322c0 0.918-0.219 1.785-0.599 2.56l-4.181-1.899c-0.044-0.575-0.342-1.072-0.782-1.384l-0.006-0.004 1.464-4.861c2.377 0.757 4.104 2.975 4.104 5.588zM8.938 9.322c0-3.235 2.644-5.867 5.894-5.867 0.253 0 0.5 0.022 0.745 0.053l-1.432 4.753c-0.019 0-0.037-0.006-0.057-0.006-0 0-0.001 0-0.001 0-1.032 0-1.869 0.835-1.872 1.867v0c0.003 1.031 0.84 1.867 1.872 1.867 0 0 0 0 0.001 0h-0c0.695 0 1.295-0.383 1.618-0.944l3.863 1.755c-1.075 1.447-2.795 2.39-4.737 2.39-3.25 0-5.894-2.632-5.894-5.867zM14.895 10.122c0 0.441-0.362 0.8-0.806 0.8-0 0-0.001 0-0.001 0-0.443 0-0.802-0.358-0.804-0.8v-0c0-0.441 0.361-0.8 0.806-0.8s0.806 0.359 0.806 0.8zM2.464 25.146c-0.11 0.109-0.261 0.176-0.428 0.176s-0.317-0.067-0.427-0.175l0 0c-0.109-0.108-0.176-0.257-0.176-0.422s0.067-0.314 0.176-0.422l0-0 0.962-0.959 0.852 0.848-0.959 0.954zM5.678 28.88c-0.11 0.109-0.261 0.176-0.428 0.176s-0.317-0.067-0.427-0.175l0 0c-0.109-0.108-0.176-0.257-0.176-0.422s0.067-0.314 0.176-0.422l0-0 0.963-0.959 0.852 0.848-0.96 0.955zM9.16 25.411l-0.001 0.001-1.765 1.76-0.852-0.848 1.765-1.757c0.040-0.040 0.065-0.088 0.090-0.136 0.007-0.014 0.020-0.026 0.026-0.040 0.016-0.041 0.019-0.085 0.026-0.128 0.003-0.025 0.014-0.048 0.014-0.073 0-0.035-0.013-0.070-0.020-0.105-0.006-0.032-0.006-0.064-0.019-0.096-0.025-0.053-0.055-0.098-0.092-0.138l0 0c-0.010-0.012-0.014-0.026-0.025-0.038h-0.001s0-0.001-0.001-0.002l-1.607-1.6c-0.017-0.017-0.039-0.024-0.058-0.038-0.025-0.021-0.054-0.040-0.084-0.056l-0.003-0.001c-0.026-0.012-0.058-0.023-0.090-0.031l-0.003-0.001c-0.030-0.009-0.065-0.017-0.101-0.020l-0.002-0c-0.007-0-0.015-0-0.023-0-0.026 0-0.051 0.002-0.075 0.005l0.003-0c-0.036 0.005-0.069 0.009-0.104 0.021s-0.064 0.027-0.094 0.045c-0.020 0.011-0.043 0.015-0.061 0.029l-1.774 1.324-0.901-0.897 2.399-2.386 4.36 4.289-0.928 0.919zM15.979 18.394c-0.016-0.002-0.030 0.004-0.046 0.003-0.008-0-0.017-0.001-0.027-0.001-0.031 0-0.062 0.003-0.092 0.008l0.003-0c-0.070 0.011-0.132 0.035-0.187 0.070l0.002-0.001c-0.030 0.018-0.057 0.037-0.083 0.061-0.013 0.011-0.028 0.016-0.040 0.029l-4.698 5.146-4.328-4.256 2.833-2.818c0.096-0.097 0.156-0.23 0.156-0.377 0-0.295-0.239-0.534-0.534-0.534-0.001 0-0.001 0-0.002 0h0l-2.219 0.013 0.028-1.607 3.104 0.027c1.264 1.297 3.027 2.101 4.978 2.101 0.001 0 0.002 0 0.003 0h-0c0.438 0 0.864-0.046 1.28-0.122 0.040 0.032 0.080 0.064 0.129 0.085l2.41 0.96 0.152 0.758 0.178 0.886-3.003-0.427zM20.020 18.572l-0.313-1.558 1.446-1.080 0.946 1.257-2.080 1.381zM23.773 15.741l-0.837 0.785-0.931-1.236 0.831-0.637c0.155-0.119 0.351-0.168 0.543-0.143 0.193 0.027 0.364 0.128 0.48 0.284 0.088 0.117 0.141 0.265 0.141 0.426 0 0.206-0.087 0.391-0.226 0.521l-0 0z"></path>
      <path fill="#212121" style="fill: var(--color1, #212121)" d="M13.602 18.544l-2.143-2.134c-0.096-0.096-0.229-0.155-0.376-0.155s-0.28 0.059-0.376 0.155l-2.143 2.133c-0.097 0.097-0.156 0.23-0.156 0.378s0.060 0.281 0.156 0.378l-0-0 2.142 2.134c0.096 0.096 0.229 0.156 0.376 0.156s0.28-0.059 0.376-0.156v0l2.143-2.134c0.097-0.097 0.157-0.23 0.157-0.378s-0.060-0.281-0.157-0.378l-0-0zM11.083 20.303l-1.387-1.381 1.386-1.381 1.387 1.381-1.387 1.381zM17.164 5.071l-0.258 1.036c0.071 0.018 1.738 0.452 1.738 2.149h1.067c0-2.017-1.666-2.965-2.547-3.184zM19.711 9.322h-1.067v1.066h1.067v-1.066z"></path>
    </symbol>
    <symbol id="antenna-1" viewBox="0 0 32 32">
      <path fill="#212121" style="fill: var(--color1, #212121)" d="M30.773 22.098l-8.443-8.505 0.937-4.616c0.225 0.090 0.485 0.144 0.758 0.146h0.007c0.008 0 0.017 0 0.026 0 1.192 0 2.159-0.967 2.159-2.159s-0.967-2.159-2.159-2.159c-1.192 0-2.159 0.967-2.159 2.159 0 0.259 0.046 0.508 0.13 0.739l-0.005-0.015-4.96 0.606-8.091-8.133c-0.096-0.098-0.229-0.159-0.376-0.16h-0c-0.14 0.001-0.274 0.057-0.373 0.155l-1.512 1.504c-0.096 0.097-0.156 0.23-0.156 0.377s0.060 0.281 0.156 0.377v0l0.814 0.825c-1.143 2.062-1.816 4.522-1.816 7.139 0 4.106 1.656 7.824 4.336 10.525l-0.001-0.001c0.043 0.041 0.092 0.074 0.146 0.097-0.032 0.164-0.051 0.353-0.052 0.546v6.188h-6.4c-1.472 0.001-2.666 1.194-2.667 2.666v1.067c0 0.295 0.239 0.534 0.534 0.534h24.534c0.294 0 0.533-0.239 0.533-0.534v-1.067c-0.002-1.472-1.195-2.665-2.666-2.666h-6.4v-2.742c1.003 0.21 2.024 0.317 3.049 0.32 2.58-0.003 5.005-0.663 7.117-1.822l-0.077 0.039 0.818 0.823c0.099 0.101 0.235 0.159 0.376 0.16 0.14-0.001 0.274-0.057 0.373-0.155l1.512-1.504c0.096-0.097 0.156-0.23 0.156-0.377s-0.060-0.281-0.156-0.377v0zM23.28 6.233c0.193-0.192 0.459-0.31 0.752-0.31 0.589 0 1.067 0.478 1.067 1.066s-0.477 1.066-1.067 1.066c-0 0-0 0-0 0h-0.004c-0.587-0.003-1.061-0.479-1.061-1.066 0-0.295 0.12-0.563 0.314-0.756l0-0h-0.002zM22.024 9.737l-0.598 2.946-1.175-1.183 1.774-1.763zM21.419 8.835l-1.92 1.909-1.486-1.493 3.406-0.416zM24.004 28.8c0.884 0 1.6 0.716 1.6 1.6v0 0.534h-23.466v-0.534c0-0.884 0.716-1.6 1.6-1.6v0h20.267zM16.538 26.666v1.067h-5.334v-1.067h5.334zM11.204 25.6v-4.053c0-1.294 1.196-2.346 2.667-2.346s2.667 1.053 2.667 2.346v4.053h-5.334zM17.604 23.904v-2.357c0-1.882-1.675-3.413-3.733-3.413-0.017-0-0.038-0-0.058-0-1.353 0-2.54 0.707-3.213 1.771l-0.009 0.016c-2.36-2.482-3.812-5.846-3.812-9.55 0-2.314 0.567-4.496 1.569-6.414l-0.036 0.077 18.602 18.709c-1.823 0.947-3.979 1.502-6.266 1.502-1.079 0-2.128-0.124-3.136-0.357l0.093 0.018zM28.893 23.22l-21.057-21.181 0.754-0.752 7.935 7.98c0.004 0 0.006 0.007 0.010 0.010l13.114 13.191-0.757 0.752z"></path>
      <path fill="#2196f3" style="fill: var(--color2, #2196f3)" d="M13.876 20.267h-0.005c-0.001 0-0.002 0-0.002 0-0.884 0-1.6 0.716-1.6 1.6s0.715 1.599 1.597 1.6h0.005c0.001 0 0.001 0 0.002 0 0.884 0 1.6-0.716 1.6-1.6s-0.715-1.599-1.598-1.6h-0zM14.249 22.245c-0.096 0.096-0.229 0.155-0.376 0.155-0.295 0-0.534-0.239-0.534-0.534s0.238-0.533 0.532-0.533h0c0.293 0.001 0.531 0.239 0.531 0.533 0 0.148-0.060 0.282-0.157 0.378l-0 0h0.005z"></path>
    </symbol>
    <symbol id="clock-1" viewBox="0 0 32 32">
      <path fill="#212121" style="fill: var(--color1, #212121)" d="M31.296 15.301c-0.001-8.452-6.855-15.303-15.308-15.301s-15.303 6.855-15.301 15.308c0.002 6.788 4.422 12.543 10.541 14.545l0.108 0.031c0.061 0.019 0.123 0.029 0.187 0.029 0.12 0 0.238-0.032 0.342-0.094 0.135-0.080 0.236-0.207 0.283-0.357l3.865-12.25c1.054-0.004 1.906-0.859 1.906-1.913 0-1.056-0.856-1.913-1.913-1.913-0.303 0-0.59 0.071-0.845 0.196l0.011-0.005-5.106-5.107c-0.114-0.11-0.271-0.179-0.443-0.179-0.352 0-0.638 0.286-0.638 0.638 0 0.172 0.068 0.328 0.179 0.443l-0-0 5.103 5.109c-0.121 0.241-0.191 0.525-0.191 0.826 0 0.602 0.283 1.137 0.723 1.48l0.004 0.003-3.682 11.673c-7.278-2.681-11.004-10.754-8.324-18.032s10.754-11.004 18.032-8.323c7.278 2.681 11.004 10.754 8.323 18.032-1.345 3.581-4.003 6.406-7.374 7.938l-0.088 0.036-0.398-1.874c-0.063-0.291-0.318-0.506-0.624-0.506-0.164 0-0.313 0.062-0.426 0.163l0.001-0.001-3.837 3.426c-0.132 0.117-0.214 0.287-0.214 0.477 0 0.283 0.185 0.524 0.441 0.606l0.005 0.001 4.899 1.563c0.058 0.020 0.126 0.031 0.196 0.031 0.352 0 0.637-0.285 0.637-0.637 0-0.047-0.005-0.093-0.015-0.138l0.001 0.004-0.391-1.839c5.528-2.374 9.329-7.772 9.329-14.057 0-0.011 0-0.023-0-0.034v0.002zM15.992 14.664c0.352 0 0.638 0.286 0.638 0.638s-0.285 0.638-0.638 0.638v0c-0.352 0-0.638-0.286-0.638-0.638s0.286-0.638 0.638-0.638v0zM18.092 29.528l2.184-1.948 0.603 2.84-2.787-0.892z"></path>
      <path fill="#2196f3" style="fill: var(--color2, #2196f3)" d="M15.354 3.185v1.275c0 0.352 0.286 0.638 0.638 0.638s0.638-0.285 0.638-0.638v0-1.275c0-0.352-0.285-0.638-0.638-0.638s-0.638 0.285-0.638 0.638v0zM3.876 14.664c-0.352 0-0.638 0.286-0.638 0.638s0.285 0.638 0.638 0.638h1.275c0.352 0 0.638-0.286 0.638-0.638s-0.285-0.638-0.638-0.638h-1.275zM28.108 15.939c0.352 0 0.638-0.286 0.638-0.638s-0.285-0.638-0.638-0.638h-1.275c-0.352 0-0.638 0.286-0.638 0.638s0.285 0.638 0.638 0.638h1.275z"></path>
    </symbol>
    <symbol id="diagram-1" viewBox="0 0 32 32">
      <path fill="#2196f3" style="fill: var(--color2, #2196f3)" d="M14.926 14.965h1.066v4.798h-1.066v-4.798zM19.19 17.097h1.066v2.665h-1.066v-2.665zM10.661 18.696h1.066v1.066h-1.066v-1.066zM7.463 18.163h1.066v1.599h-1.066v-1.599z"></path>
      <path fill="#212121" style="fill: var(--color1, #212121)" d="M1.599 28.291h25.586c0 0 0 0 0 0 0.883 0 1.599-0.716 1.599-1.599v0-2.132c0-0.883-0.716-1.599-1.599-1.599v0h-0.533v-13.294l3.028-2.868c0.207 0.104 0.452 0.166 0.711 0.166 0.888 0 1.608-0.72 1.608-1.608s-0.72-1.608-1.608-1.608c-0.888 0-1.608 0.72-1.608 1.608 0 0.247 0.056 0.481 0.155 0.69l-0.004-0.010-2.281 2.162v-1.23c0-0.883-0.716-1.599-1.599-1.599v0h-21.323c-0.883 0-1.599 0.716-1.599 1.599v0 15.992h-0.533c-0.883 0-1.599 0.716-1.599 1.599v0 2.132c0 0.883 0.716 1.599 1.599 1.599v0zM30.384 4.837c0.294 0 0.533 0.239 0.533 0.533s-0.239 0.533-0.533 0.533v0c-0.294 0-0.533-0.239-0.533-0.533s0.239-0.533 0.533-0.533v0zM3.198 6.969c0-0.294 0.239-0.533 0.533-0.533h21.323c0.294 0 0.533 0.239 0.533 0.533v2.239l-1.066 1.013v-2.185c0-0.295-0.239-0.534-0.534-0.534h-19.189c-0.294 0-0.534 0.239-0.534 0.533v13.327c0 0.294 0.239 0.533 0.534 0.533h19.189c0.295 0 0.534-0.239 0.534-0.533v-9.675l1.066-1.010v12.283h-22.389v-15.991zM7.996 13.899c-0.001 0-0.003 0-0.005 0-0.883 0-1.599 0.716-1.599 1.599s0.716 1.599 1.599 1.599c0.432 0 0.824-0.172 1.112-0.45l-0 0 1.853 0.93c0.215 0.107 0.476 0.057 0.636-0.122l3.939-4.432 3.872 2.902c0.208 0.155 0.498 0.139 0.686-0.039l3.365-3.188v8.131h-18.123v-12.261h18.123v2.661l-3.771 3.572-3.904-2.927c-0.088-0.067-0.2-0.107-0.32-0.107-0.158 0-0.3 0.069-0.398 0.178l-0 0.001-3.993 4.493-1.493-0.746c0.011-0.064 0.017-0.128 0.020-0.193 0-0.883-0.716-1.599-1.599-1.599v0zM8.529 15.498c0 0.294-0.239 0.533-0.533 0.533s-0.533-0.239-0.533-0.533v0c0-0.294 0.239-0.533 0.533-0.533s0.533 0.239 0.533 0.533v0zM11.727 24.026h5.33v0.533c0 0.294-0.238 0.533-0.533 0.533h-4.265c-0.294 0-0.533-0.239-0.533-0.533v0-0.533zM1.067 24.56c0-0.294 0.238-0.533 0.533-0.533h9.062v0.533c0 0.883 0.716 1.599 1.599 1.599v0h4.265c0.883 0 1.599-0.716 1.599-1.599v0-0.533h9.062c0.294 0 0.533 0.239 0.533 0.533v2.132c0 0.294-0.239 0.533-0.533 0.533h-25.586c-0 0-0 0-0 0-0.294 0-0.533-0.239-0.533-0.533 0 0 0 0 0 0v0-2.132z"></path>
    </symbol>
    <symbol id="envelope" viewBox="0 0 32 32">
      <path d="M29 4H3C1.346 4 0 5.346 0 7v18c0 1.654 1.346 3 3 3h26c1.654 0 3-1.346 3-3V7c0-1.654-1.346-3-3-3zm0 2c.136 0 .266.028.384.078L16 17.678 2.616 6.078C2.729 6.029 2.861 6 3 6h26zm0 20H3c-.552 0-1-.448-1-1V8.19l13.344 11.566c.175.152.404.245.656.245s.481-.093.657-.246l-.001.001L30 8.19V25c0 .552-.448 1-1 1z" />
    </symbol>
    <symbol id="facebook-1" viewBox="0 0 32 32">
      <path d="M21.328 5.312h2.923V.224C23.019.081 21.591 0 20.144 0h-.157.008c-4.213 0-7.099 2.65-7.099 7.52V12H8.25v5.688h4.646V32h5.699V17.69h4.459l.709-5.688h-5.17V8.08c0-1.643.443-2.768 2.734-2.768z" />
    </symbol>
    <symbol id="instagram-2" viewBox="0 0 32 32">
      <path d="M31.968 9.408c-.074-1.701-.349-2.869-.742-3.882-.424-1.111-1.054-2.059-1.85-2.837l-.001-.001c-.78-.792-1.724-1.419-2.778-1.827l-.054-.018C25.524.449 24.362.176 22.661.101 20.949.019 20.405 0 16.059 0c-4.344 0-4.888.019-6.595.094-1.699.074-2.869.349-3.88.742-1.112.424-2.06 1.054-2.839 1.85l-.001.001c-.791.78-1.418 1.724-1.825 2.778l-.018.054C.506 6.538.232 7.7.157 9.401c-.082 1.712-.101 2.256-.101 6.602 0 4.344.019 4.888.094 6.595.075 1.701.35 2.869.744 3.882.426 1.11 1.055 2.057 1.849 2.837l.001.001c.8.813 1.77 1.443 2.832 1.843 1.019.395 2.182.67 3.882.744 1.707.075 2.251.094 6.595.094 4.346 0 4.89-.019 6.595-.094 1.701-.074 2.869-.349 3.882-.742 2.157-.85 3.833-2.526 4.664-4.628l.019-.055c.394-1.019.669-2.182.744-3.882.075-1.707.093-2.251.093-6.595s-.006-4.888-.08-6.595zm-2.88 13.066c-.07 1.563-.333 2.406-.55 2.97-.552 1.399-1.64 2.486-3.004 3.024l-.036.012c-.56.219-1.411.482-2.968.55-1.688.075-2.194.094-6.464.094-4.269 0-4.782-.019-6.464-.094-1.563-.069-2.406-.331-2.97-.55-.721-.269-1.334-.676-1.836-1.192l-.001-.001c-.517-.503-.924-1.117-1.184-1.803L3.6 25.45c-.218-.563-.48-1.413-.549-2.97-.075-1.688-.094-2.195-.094-6.464 0-4.27.019-4.784.094-6.464.069-1.563.331-2.406.549-2.97.269-.722.678-1.337 1.198-1.837l.002-.002c.504-.517 1.119-.923 1.806-1.182l.034-.011c.56-.219 1.411-.48 2.968-.55 1.688-.074 2.195-.093 6.464-.093 4.275 0 4.782.019 6.464.093 1.563.069 2.406.331 2.97.55.693.256 1.325.662 1.837 1.194.531.52.938 1.144 1.195 1.84.218.56.48 1.411.549 2.968.075 1.688.094 2.194.094 6.464 0 4.269-.019 4.768-.094 6.458z" />
      <path d="M16.059 7.782c-4.539.002-8.218 3.682-8.219 8.221.091 4.471 3.737 8.06 8.221 8.06s8.13-3.589 8.221-8.052v-.009c-.001-4.54-3.681-8.22-8.221-8.221zm0 13.552c-2.945 0-5.332-2.388-5.332-5.333s2.388-5.333 5.333-5.333h.001c2.946 0 5.334 2.388 5.334 5.334s-2.388 5.334-5.334 5.334z" />
      <path d="M26.525 7.458c0 1.06-.86 1.92-1.92 1.92s-1.92-.86-1.92-1.92.86-1.92 1.92-1.92 1.92.86 1.92 1.92z" />
    </symbol>
    <symbol id="laptop" viewBox="0 0 32 32">
      <path d="M1.599 28.291h25.586c.883 0 1.599-.716 1.599-1.599V24.56c0-.883-.716-1.599-1.599-1.599h-.533V9.667l3.028-2.868c.207.104.452.166.711.166.888 0 1.608-.72 1.608-1.608s-.72-1.608-1.608-1.608c-.888 0-1.608.72-1.608 1.608 0 .247.056.481.155.69l-.004-.01-2.281 2.162v-1.23c0-.883-.716-1.599-1.599-1.599H3.731c-.883 0-1.599.716-1.599 1.599v15.992h-.533C.716 22.961 0 23.677 0 24.56v2.132c0 .883.716 1.599 1.599 1.599zM30.384 4.837c.294 0 .533.239.533.533s-.239.533-.533.533c-.294 0-.533-.239-.533-.533s.239-.533.533-.533zM3.198 6.969c0-.294.239-.533.533-.533h21.323c.294 0 .533.239.533.533v2.239l-1.066 1.013V8.036c0-.295-.239-.534-.534-.534H4.798c-.294 0-.534.239-.534.533v13.327c0 .294.239.533.534.533h19.189c.295 0 .534-.239.534-.533v-9.675l1.066-1.01V22.96H3.198V6.97zm4.798 6.93h-.005c-.883 0-1.599.716-1.599 1.599s.716 1.599 1.599 1.599c.432 0 .824-.172 1.112-.45l1.853.93c.215.107.476.057.636-.123l3.939-4.431 3.872 2.902c.208.155.498.139.686-.039l3.365-3.188v8.131H5.331V8.568h18.123v2.661l-3.771 3.572-3.904-2.927c-.088-.067-.2-.107-.32-.107-.158 0-.3.069-.398.178v.001l-3.993 4.493-1.493-.746c.011-.064.017-.128.02-.193 0-.883-.716-1.599-1.599-1.599zm.533 1.599c0 .294-.239.533-.533.533s-.533-.239-.533-.533c0-.294.239-.533.533-.533s.533.239.533.533zm3.198 8.528h5.33v.533c0 .294-.238.533-.533.533h-4.265c-.294 0-.533-.239-.533-.533v-.533zm-10.66.534c0-.294.238-.533.533-.533h9.062v.533c0 .883.716 1.599 1.599 1.599h4.265c.883 0 1.599-.716 1.599-1.599v-.533h9.062c.294 0 .533.239.533.533v2.132c0 .294-.239.533-.533.533H1.601c-.294 0-.533-.239-.533-.533V24.56z" />
    </symbol>
    <symbol id="linkedin-1" viewBox="0 0 32 32">
      <path d="M31.992 32H32V20.262c0-5.741-1.237-10.163-7.947-10.163-3.227 0-5.392 1.77-6.277 3.45h-.093v-2.914h-6.365v21.363h6.627V21.42c0-2.786.528-5.48 3.978-5.48 3.398 0 3.448 3.179 3.448 5.658V32h6.621zM.528 10.635h6.635V32H.528V10.635zM3.843 0C1.72 0 0 1.721 0 3.843c0 2.12 1.722 3.878 3.843 3.878 2.12 0 3.842-1.757 3.842-3.878S5.965.002 3.844 0z" />
    </symbol>
    <symbol id="satellite" viewBox="0 0 30 32">
      <path d="m29.859 22.098-8.443-8.505.937-4.616c.225.09.485.144.758.146h.033c1.192 0 2.159-.967 2.159-2.159s-.967-2.159-2.159-2.159c-1.192 0-2.159.967-2.159 2.159 0 .259.046.508.13.739l-.005-.015-4.96.606L8.059.161C7.963.063 7.83.002 7.683.001c-.14.001-.274.057-.373.155L5.798 1.66c-.096.097-.156.23-.156.377s.06.281.156.377l.814.825c-1.143 2.062-1.816 4.522-1.816 7.139 0 4.106 1.656 7.824 4.336 10.525l-.001-.001c.043.041.092.074.146.097-.032.164-.051.353-.052.546v6.188h-6.4c-1.472.001-2.666 1.194-2.667 2.666v1.067c0 .295.239.534.534.534h24.534c.294 0 .533-.239.533-.534v-1.067c-.002-1.472-1.195-2.665-2.666-2.666h-6.4v-2.742c1.003.21 2.024.317 3.049.32 2.58-.003 5.005-.663 7.117-1.822l-.077.039.818.823c.099.101.235.159.376.16.14-.001.274-.057.373-.155l1.512-1.504c.096-.097.156-.23.156-.377s-.06-.281-.156-.377zM22.366 6.233c.193-.192.459-.31.752-.31.589 0 1.067.478 1.067 1.066s-.477 1.066-1.067 1.066h-.004c-.587-.003-1.061-.479-1.061-1.066 0-.295.12-.563.314-.756h-.002zM21.11 9.737l-.598 2.946-1.175-1.183 1.774-1.763zm-.606-.902-1.92 1.909-1.486-1.493 3.406-.416zM23.09 28.8c.884 0 1.6.716 1.6 1.6v.534H1.224V30.4c0-.884.716-1.6 1.6-1.6h20.267zm-7.467-2.134v1.067h-5.334v-1.067h5.334zM10.29 25.6v-4.053c0-1.294 1.196-2.346 2.666-2.346s2.667 1.053 2.667 2.346V25.6H10.29zm6.4-1.696v-2.357c0-1.882-1.675-3.413-3.733-3.413h-.058c-1.353 0-2.54.707-3.213 1.771l-.009.016c-2.36-2.482-3.812-5.846-3.812-9.55 0-2.314.567-4.496 1.569-6.414l-.036.077L26 22.743c-1.823.947-3.979 1.502-6.266 1.502-1.079 0-2.128-.124-3.136-.357l.093.018zm11.289-.684L6.922 2.039l.754-.752 7.935 7.98c.004 0 .006.007.01.01l13.115 13.191-.757.752z" />
    </symbol>
    <symbol id="smartphone" viewBox="0 0 32 32">
      <path d="M23 0H9C7.346 0 6 1.346 6 3v26c0 1.654 1.346 3 3 3h14c1.654 0 3-1.346 3-3V3c0-1.654-1.346-3-3-3zM9 2h14c.552 0 1 .448 1 1v21H8V3c0-.552.448-1 1-1zm14 28H9c-.552 0-1-.448-1-1v-3h16v3c0 .552-.448 1-1 1z" />
      <path d="M10.708 27.478c.18.163.293.399.293.66s-.113.497-.292.659l-.001.001c-.186.17-.435.275-.708.275s-.522-.104-.709-.275l.001.001c-.18-.163-.293-.399-.293-.66s.113-.497.292-.659l.001-.001c.186-.17.435-.275.708-.275s.522.104.709.275l-.001-.001z" />
    </symbol>
    <symbol id="twitter-1" viewBox="0 0 32 32">
      <path d="M32 6.078c-1.1.493-2.376.857-3.713 1.028l-.068.007c1.36-.817 2.382-2.078 2.873-3.579l.013-.046c-1.197.722-2.591 1.273-4.076 1.573l-.084.014c-1.2-1.279-2.9-2.076-4.787-2.076-3.622 0-6.558 2.936-6.558 6.558v.004c0 .52.043 1.021.152 1.496-5.454-.266-10.28-2.88-13.522-6.861-.564.949-.899 2.092-.902 3.313v.001c0 2.272 1.171 4.286 2.914 5.451-1.091-.03-2.107-.325-2.994-.823l.033.017v.072c.003 3.165 2.236 5.807 5.213 6.44l.043.008c-.499.136-1.071.215-1.662.215h-.061.003c-.419 0-.843-.024-1.242-.112.85 2.598 3.261 4.509 6.13 4.57-2.215 1.746-5.045 2.8-8.122 2.8H1.57h.001-.062c-.531 0-1.055-.034-1.569-.099l.061.006c2.826 1.846 6.287 2.944 10.004 2.944h.063-.003c12.072 0 18.672-10 18.672-18.669 0-.288-.01-.57-.024-.848 1.299-.936 2.39-2.064 3.258-3.355l.03-.047z" />
    </symbol>
    <symbol id="facebook" viewBox="0 0 32 32">
      <path d="M19 6h5V0h-5c-3.86 0-7 3.14-7 7v3H8v6h4v16h6V16h5l1-6h-6V7c0-.542.458-1 1-1z" />
    </symbol>
    <symbol id="instagram" viewBox="0 0 32 32">
      <path d="M16 2.881c4.275 0 4.781.019 6.462.094 1.563.069 2.406.331 2.969.55.744.288 1.281.638 1.837 1.194.563.563.906 1.094 1.2 1.838.219.563.481 1.412.55 2.969.075 1.688.094 2.194.094 6.463s-.019 4.781-.094 6.463c-.069 1.563-.331 2.406-.55 2.969-.288.744-.637 1.281-1.194 1.837-.563.563-1.094.906-1.837 1.2-.563.219-1.413.481-2.969.55-1.688.075-2.194.094-6.463.094s-4.781-.019-6.463-.094c-1.563-.069-2.406-.331-2.969-.55-.744-.288-1.281-.637-1.838-1.194-.563-.563-.906-1.094-1.2-1.837-.219-.563-.481-1.413-.55-2.969-.075-1.688-.094-2.194-.094-6.463s.019-4.781.094-6.463c.069-1.563.331-2.406.55-2.969.288-.744.638-1.281 1.194-1.838.563-.563 1.094-.906 1.838-1.2.563-.219 1.412-.481 2.969-.55 1.681-.075 2.188-.094 6.463-.094zM16 0c-4.344 0-4.887.019-6.594.094-1.7.075-2.869.35-3.881.744-1.056.412-1.95.956-2.837 1.85-.894.888-1.438 1.781-1.85 2.831C.444 6.538.169 7.7.094 9.4.019 11.113 0 11.656 0 16s.019 4.887.094 6.594c.075 1.7.35 2.869.744 3.881.413 1.056.956 1.95 1.85 2.837.887.887 1.781 1.438 2.831 1.844 1.019.394 2.181.669 3.881.744 1.706.075 2.25.094 6.594.094s4.888-.019 6.594-.094c1.7-.075 2.869-.35 3.881-.744 1.05-.406 1.944-.956 2.831-1.844s1.438-1.781 1.844-2.831c.394-1.019.669-2.181.744-3.881.075-1.706.094-2.25.094-6.594s-.019-4.887-.094-6.594c-.075-1.7-.35-2.869-.744-3.881-.394-1.063-.938-1.956-1.831-2.844-.887-.887-1.781-1.438-2.831-1.844-1.019-.394-2.181-.669-3.881-.744-1.712-.081-2.256-.1-6.6-.1z" />
      <path d="M16 7.781c-4.537 0-8.219 3.681-8.219 8.219s3.681 8.219 8.219 8.219 8.219-3.681 8.219-8.219c0-4.537-3.681-8.219-8.219-8.219zm0 13.55c-2.944 0-5.331-2.387-5.331-5.331s2.387-5.331 5.331-5.331c2.944 0 5.331 2.387 5.331 5.331S18.944 21.331 16 21.331zM26.462 7.456c0 1.06-.859 1.919-1.919 1.919s-1.919-.859-1.919-1.919.859-1.919 1.919-1.919 1.919.859 1.919 1.919z" />
    </symbol>
    <symbol id="twitter" viewBox="0 0 32 32">
      <path d="M32 7.075c-1.175.525-2.444.875-3.769 1.031 1.356-.813 2.394-2.1 2.887-3.631-1.269.75-2.675 1.3-4.169 1.594C25.749 4.794 24.043 4 22.155 4c-3.625 0-6.563 2.938-6.563 6.563 0 .512.056 1.012.169 1.494-5.456-.275-10.294-2.888-13.531-6.862-.563.969-.887 2.1-.887 3.3 0 2.275 1.156 4.287 2.919 5.463-1.075-.031-2.087-.331-2.975-.819v.081c0 3.181 2.263 5.838 5.269 6.437-.55.15-1.131.231-1.731.231-.425 0-.831-.044-1.237-.119.838 2.606 3.263 4.506 6.131 4.563-2.25 1.762-5.075 2.813-8.156 2.813-.531 0-1.05-.031-1.569-.094 2.913 1.869 6.362 2.95 10.069 2.95 12.075 0 18.681-10.006 18.681-18.681 0-.287-.006-.569-.019-.85 1.281-.919 2.394-2.075 3.275-3.394z" />
    </symbol>
    <symbol id="linkedin2" viewBox="0 0 32 32">
      <path d="M12 12h5.535v2.837h.079c.77-1.381 2.655-2.837 5.464-2.837C28.92 12 30 15.637 30 20.367V30h-5.769v-8.54c0-2.037-.042-4.657-3.001-4.657-3.005 0-3.463 2.218-3.463 4.509V30H12V12zM2 12h6v18H2V12zM8 7c0 1.657-1.343 3-3 3S2 8.657 2 7s1.343-3 3-3 3 1.343 3 3z" />
    </symbol>
    <symbol id="close" viewBox="0 0 18 18">
      <path d="M15 4.10786L13.8921 3L9.5 7.39214L5.10786 3L4 4.10786L8.39214 8.5L4 12.8921L5.10786 14L9.5 9.60786L13.8921 14L15 12.8921L10.6079 8.5L15 4.10786Z"/>
    </symbol>
    <symbol id="person" viewBox="0 0 18 18">
    <path d="M9 9C10.6575 9 12 7.6575 12 6C12 4.3425 10.6575 3 9 3C7.3425 3 6 4.3425 6 6C6 7.6575 7.3425 9 9 9ZM9 10.5C6.9975 10.5 3 11.505 3 13.5V14.25C3 14.6625 3.3375 15 3.75 15H14.25C14.6625 15 15 14.6625 15 14.25V13.5C15 11.505 11.0025 10.5 9 10.5Z" />
  </symbol>
  <symbol id="phone" viewBox="0 0 18 18">
  <path d="M13.996 11.1226L12.1579 10.9127C11.7164 10.862 11.2822 11.014 10.971 11.3252L9.63945 12.6568C7.59144 11.6147 5.91251 9.94296 4.87041 7.8877L6.20922 6.54888C6.5204 6.2377 6.67237 5.80349 6.62171 5.36205L6.41185 3.53836C6.325 2.80745 5.70988 2.25745 4.97173 2.25745H3.71976C2.902 2.25745 2.22175 2.93771 2.2724 3.75547C2.65595 9.93572 7.59868 14.8712 13.7717 15.2548C14.5894 15.3054 15.2697 14.6252 15.2697 13.8074V12.5555C15.2769 11.8245 14.7269 11.2094 13.996 11.1226Z" />
  </symbol>
  <symbol id="email" viewBox="0 0 18 18">
  <path d="M15 3H3C2.175 3 1.5075 3.675 1.5075 4.5L1.5 13.5C1.5 14.325 2.175 15 3 15H15C15.825 15 16.5 14.325 16.5 13.5V4.5C16.5 3.675 15.825 3 15 3ZM14.7 6.1875L9.3975 9.5025C9.1575 9.6525 8.8425 9.6525 8.6025 9.5025L3.3 6.1875C3.1125 6.0675 3 5.865 3 5.6475C3 5.145 3.5475 4.845 3.975 5.1075L9 8.25L14.025 5.1075C14.4525 4.845 15 5.145 15 5.6475C15 5.865 14.8875 6.0675 14.7 6.1875Z" />
  </symbol>
  <symbol id="send" viewBox="0 0 24 24">
  <path d="M24 0L0 13.5L7.66994 16.3407L19.5 5.25002L10.5017 17.3896L10.509 17.3923L10.5 17.3896V24.0001L14.8013 18.982L20.2501 21.0001L24 0Z" />
  </symbol>

  </defs>
</svg>
